<?xml version="1.0" encoding="UTF-8"?>
<svg xmlns="http://www.w3.org/2000/svg" xmlns:xlink="http://www.w3.org/1999/xlink" width="1573" height="3301" viewBox="0 0 1573 3301">
<path fill-rule="evenodd" fill="rgb(0%, 0%, 0%)" fill-opacity="1" d="M 1070.351562 1997.429688 C 1086.070312 1992.210938 1101.671875 1988.660156 1117.839844 1985.238281 C 1138.378906 1981.050781 1157.71875 1977.019531 1178.03125 1971.621094 C 1195.949219 1966.710938 1213.359375 1961.300781 1230.96875 1955.371094 C 1260.988281 1944.851562 1275.441406 1945.261719 1306.488281 1950.140625 C 1324.929688 1953.449219 1326.171875 1939.480469 1332.160156 1922.03125 C 1348.558594 1874.238281 1379.839844 1786.671875 1373.210938 1737.710938 C 1370.921875 1727.5 1370.179688 1737.160156 1368.488281 1744.359375 C 1346.351562 1827.871094 1316.171875 1882.980469 1238.441406 1926.199219 C 1217.28125 1937.96875 1208.449219 1940.320312 1184.441406 1937.070312 C 1194.75 1891.960938 1182.660156 1911.050781 1154.378906 1931.160156 C 1121.230469 1954.199219 1106.128906 1962.070312 1064.898438 1958.191406 C 1066.480469 1910.839844 1084.980469 1872.429688 1088.308594 1825.03125 C 1089.238281 1800 1095.949219 1774.289062 1096.199219 1746.441406 C 1094.058594 1679.03125 1076.628906 1619.699219 1047.808594 1559.121094 C 1035.570312 1533.410156 1046.960938 1542.308594 1071.640625 1546.261719 C 1123.128906 1551.648438 1174.390625 1542.929688 1225.761719 1540.160156 C 1300.101562 1536.160156 1318.160156 1527.339844 1383.820312 1499.761719 C 1391.378906 1496.578125 1388.789062 1496.210938 1390.128906 1510.449219 C 1392.308594 1533.691406 1394.261719 1562.050781 1391.730469 1585.160156 C 1351.601562 1485.261719 1375.871094 1581.621094 1375.25 1617.941406 C 1371.53125 1602.421875 1367.851562 1586.878906 1364.050781 1571.378906 C 1363.148438 1635.71875 1385.199219 1702.78125 1392.53125 1767.441406 C 1397.058594 1813.171875 1400.148438 1865.441406 1397.46875 1911.230469 C 1383.339844 1904.308594 1370.980469 1861.988281 1385.019531 1922.238281 C 1399 1982.25 1410.660156 2026.640625 1405.738281 2089.46875 C 1404.628906 2101.859375 1402.800781 2092.238281 1397.378906 2083.378906 C 1385.179688 2062.441406 1385.679688 2055.960938 1391.53125 2081.519531 L 1393.671875 2090.878906 C 1407.070312 2152.808594 1412 2216.480469 1410.171875 2279.78125 C 1397.480469 2265.960938 1373.378906 2201.210938 1390.101562 2269.96875 L 1393.710938 2284.828125 C 1410.179688 2350.558594 1420.21875 2384.863281 1423.53125 2454.300781 C 1424.851562 2481.941406 1425.308594 2509.503906 1426.839844 2537.175781 C 1427.75 2552.914062 1429.269531 2566.851562 1432.078125 2582.375 C 1439.550781 2620.492188 1456.578125 2652.5625 1462.300781 2689.550781 C 1449.441406 2680.277344 1445.140625 2670.898438 1433.578125 2661.472656 C 1427.980469 2656.898438 1423.628906 2654.019531 1418.699219 2648.875 C 1413.710938 2643.675781 1410.761719 2638.050781 1404.878906 2634.148438 C 1409.609375 2650.332031 1456.140625 2710.277344 1453.089844 2723.515625 C 1441.800781 2772.542969 1398.230469 2842.253906 1362.03125 2876.160156 C 1354.679688 2883.046875 1351.800781 2887.683594 1345.46875 2894.402344 C 1333.210938 2907.546875 1320.578125 2916.214844 1309.980469 2929.335938 C 1293.191406 2949.015625 1272.339844 2964.417969 1253.691406 2984.308594 C 1235.730469 3003.476562 1213.851562 3020.046875 1194.808594 3038.78125 C 1137.660156 3096.46875 1033.078125 3182.125 1015.070312 3262.300781 C 980.746094 3236.621094 976.886719 3227.367188 934.6875 3207.097656 C 900.078125 3190.632812 863.378906 3176.355469 841.09375 3144.0625 C 822.429688 3117.019531 774.527344 3103.394531 745.320312 3087.417969 C 682.265625 3051.519531 681.289062 3038.90625 641.152344 2983.519531 C 626.25 2962.953125 654.519531 3033.519531 655.15625 3034.855469 C 673.390625 3073.042969 699.230469 3098.019531 732.171875 3123.605469 C 780.0625 3160.230469 836.75 3186.921875 891.800781 3210.960938 C 937.925781 3230.972656 968.746094 3246.484375 1005.808594 3281.726562 C 1009.269531 3285.316406 1012.46875 3288.085938 1016.230469 3291.359375 C 1021.378906 3295.65625 1020.359375 3298.035156 1025.449219 3300.992188 L 1086.929688 3205.578125 C 1088.871094 3202.785156 1091.019531 3200.351562 1093.390625 3197.402344 C 1139.96875 3136.605469 1193.070312 3087.546875 1246.179688 3032.742188 C 1280.371094 2997.464844 1316.039062 2967.480469 1350.210938 2930.277344 C 1354.898438 2925.167969 1359.53125 2920.019531 1364.171875 2914.859375 C 1367.988281 2910.589844 1369.398438 2910.757812 1372.789062 2907.148438 C 1375.898438 2903.851562 1376.621094 2901.019531 1379.570312 2897.335938 L 1394.160156 2880.855469 C 1426.550781 2840.253906 1458.71875 2784.667969 1469.148438 2734.050781 L 1490.019531 2741.582031 C 1496.550781 2665.121094 1463.789062 2642.746094 1453.898438 2560.039062 C 1447.21875 2494.714844 1450.828125 2438.757812 1438.878906 2371.785156 C 1436.199219 2356.777344 1428.101562 2332.097656 1432.238281 2318.269531 C 1440.289062 2284.480469 1427.199219 2136.378906 1427.28125 2086.421875 C 1427.308594 2042.589844 1426.53125 2009.289062 1417.050781 1966.039062 C 1411.730469 1941.769531 1420.78125 1962.128906 1421.75 1933.710938 C 1424.269531 1860.238281 1419.570312 1786.25 1407.238281 1713.839844 C 1404.96875 1700.5 1402.800781 1687.300781 1400.871094 1673.898438 L 1400.078125 1668.238281 L 1416.230469 1670.46875 C 1417.839844 1657.898438 1414.050781 1638.511719 1413.390625 1625.699219 C 1411.660156 1585.53125 1415.820312 1546.96875 1410.78125 1506.960938 C 1407.03125 1477.199219 1407.429688 1489.308594 1425.878906 1470.75 C 1457.140625 1439.269531 1472.738281 1391.421875 1484.609375 1349.679688 C 1492.328125 1322.171875 1498.960938 1294.179688 1504.351562 1264.871094 C 1508.96875 1239.910156 1511.539062 1224.839844 1512.53125 1199.261719 C 1512.910156 1189.46875 1513.148438 1181.75 1514.96875 1172.089844 C 1517.429688 1159.039062 1509.378906 1153.679688 1526.210938 1147.128906 C 1554.539062 1136.089844 1567 1098.070312 1571.328125 1070.371094 C 1573.648438 1055.519531 1574.121094 1040.050781 1566.128906 1026.789062 C 1543.671875 1002.769531 1438.890625 996.070312 1403.121094 994.289062 C 1370.191406 992.171875 1379.101562 988.769531 1390.710938 962.179688 C 1402.679688 934.761719 1415.871094 920.121094 1432.199219 896.148438 C 1445.378906 876.589844 1416.300781 885.601562 1429.378906 867.429688 C 1455.941406 830.53125 1491.621094 769.570312 1506.71875 727.46875 C 1508.75 721.828125 1510.230469 716.949219 1511.25 711.039062 C 1512.261719 703.988281 1494.878906 701.171875 1504.671875 669.621094 C 1524.851562 604.589844 1532.761719 491.878906 1531.578125 423.199219 C 1531.191406 400.710938 1529.96875 378.570312 1527.691406 356.199219 C 1521.039062 351.488281 1526.53125 355.609375 1522.171875 354.308594 L 1517.878906 353.089844 C 1517.550781 353 1516.890625 352.910156 1516.46875 352.660156 C 1502.179688 260.25 1490.160156 169.5 1435.480469 90.621094 C 1414.539062 60.828125 1414.378906 88.191406 1397.289062 67.351562 C 1379.921875 46.171875 1342.421875 1.328125 1313.710938 0.398438 L 1310.96875 1.289062 C 1304.359375 4.53125 1299 15.011719 1295.410156 21.230469 C 1284.320312 40.148438 1273.050781 64.058594 1264.761719 84.5 C 1238.570312 150.25 1225.25 219 1200.890625 284.050781 C 1199.578125 287.539062 1198.21875 290.980469 1196.828125 294.449219 C 1183.558594 327.121094 1159.949219 395.898438 1139.339844 420.78125 C 1132.871094 428.578125 1129.710938 434.859375 1124.871094 442.730469 C 1096.25 486.261719 1040.03125 550.441406 993.867188 574.460938 C 968.964844 587.421875 954.242188 574.96875 934.273438 560.449219 C 919.53125 549.761719 935.050781 548.539062 941.539062 537.199219 C 948.78125 524.539062 902.671875 526.550781 897.8125 526.96875 C 890.347656 527.609375 869.910156 531.019531 863.730469 529.679688 C 850.984375 518.960938 856.5 491.890625 859.785156 477.558594 C 863.691406 460.5 882.519531 431.308594 883.421875 423.578125 C 884.027344 418.371094 873.050781 420.929688 869.203125 421.289062 C 843.71875 424.578125 839.78125 434.191406 821.484375 438.738281 C 788.742188 446.890625 836.070312 387.269531 795.21875 411.800781 C 767.851562 428.21875 764.878906 451.769531 754.230469 478.820312 C 718.339844 456.539062 715.644531 445.671875 668.796875 441.46875 C 647.234375 439.539062 608.730469 441.421875 592.984375 458.230469 C 583.8125 468.03125 597.898438 470.699219 606.242188 473.199219 C 631.277344 480.101562 641.609375 479.410156 665.414062 493.160156 C 636.738281 499.511719 616.359375 500.308594 601.246094 528.671875 C 616.945312 539.640625 627.398438 539.820312 639.460938 555.660156 C 622.394531 582.691406 608.300781 570.359375 588.894531 553.058594 C 531.375 501.601562 510.636719 474.398438 471.796875 408.101562 C 467.683594 400.808594 463.117188 394.699219 458.648438 385.910156 C 450.847656 370.570312 443.855469 354.011719 437.664062 337.941406 C 399.851562 234.570312 379.566406 120.871094 326.824219 24 C 324.214844 19.300781 311.46875 -0.539062 305.351562 1.28125 C 280.710938 8.628906 245.734375 45.089844 228.582031 64.710938 C 222.679688 71.460938 216.917969 78.289062 211.179688 85.179688 C 209.917969 86.691406 208.707031 88.179688 207.367188 89.621094 C 201.699219 91.769531 202.433594 72.421875 173.515625 114.011719 C 155.074219 140.539062 144.046875 165.601562 132.644531 195.601562 C 116.429688 241.058594 109.613281 275.421875 103.28125 323 C 100.105469 347.289062 101.578125 339.980469 83.480469 346.339844 C 73.503906 349.839844 80.519531 454.679688 81.445312 466.589844 C 84.4375 505.089844 88.574219 544.898438 94.1875 583.128906 C 97.015625 602.160156 100.195312 621.28125 104.359375 640.058594 C 107.425781 652.800781 110.921875 664.738281 114.976562 677.179688 C 94.566406 678.578125 100.785156 682.039062 108.585938 706.488281 C 123.117188 752.019531 145.691406 795.878906 168.664062 837.679688 C 173.515625 846.28125 177.839844 853.839844 182.410156 862.320312 C 186.117188 869.191406 192.535156 879.53125 195.277344 886.660156 C 174.582031 886.050781 177.582031 892.121094 185.824219 908.238281 C 192.578125 921.511719 198.632812 934.699219 205.003906 948.121094 C 207.152344 952.648438 211.035156 958.640625 216.777344 958.628906 C 219.316406 958.628906 223.679688 952.820312 231 952.828125 C 232.78125 952.839844 231.941406 956.96875 231.777344 958.359375 C 229.628906 976.578125 202.402344 966.148438 206.058594 985.21875 L 206.40625 987.019531 C 207.296875 990.820312 202.921875 990.929688 199.765625 991.390625 C 191.085938 992.660156 181.273438 993.230469 172.5 993.929688 C 130.964844 997.269531 88.539062 1001.320312 47.78125 1010.128906 C 38.175781 1012.230469 28.300781 1014.761719 19.179688 1018.460938 C 0.230469 1026.320312 0.207031 1032.609375 0.871094 1056.101562 C 1.902344 1092.359375 10.558594 1114.378906 32.070312 1137.511719 C 46.40625 1152.929688 54.199219 1140.859375 55.007812 1169.671875 C 56.714844 1248.378906 90.808594 1418.300781 150.480469 1471.230469 C 171.804688 1490.148438 180.972656 1477.941406 180.027344 1521.289062 C 179.199219 1559.160156 168.980469 1602.769531 161.675781 1640.230469 C 159.832031 1650.019531 158.921875 1658.28125 158.449219 1668.21875 C 179.957031 1665.699219 173.972656 1659.109375 167.398438 1701.238281 C 157.234375 1766.390625 144.777344 1859.679688 151.324219 1924.570312 C 153.429688 1945.460938 159.742188 1919.101562 154.453125 1961.011719 C 149.261719 2002.148438 139.667969 2068.109375 154.675781 2106.820312 C 159.328125 2117.421875 161.816406 2106.011719 160.953125 2130.921875 C 158.9375 2189.320312 154.226562 2236.578125 157.203125 2296.289062 C 159.015625 2327.699219 161.472656 2357.414062 169.675781 2387.894531 C 175.175781 2408.34375 174.296875 2444.109375 179.421875 2468.933594 C 188.160156 2511.25 207.570312 2538.003906 217.863281 2576.964844 C 223.199219 2597.167969 225.753906 2605.03125 236.125 2623.808594 C 256.804688 2657.242188 253.082031 2661.226562 262.984375 2696.878906 C 274.203125 2735.238281 288.292969 2758.011719 309.839844 2790.617188 C 329.367188 2820.175781 333.699219 2848.660156 351.5625 2880.847656 C 362.886719 2901.246094 394.175781 2945.636719 415.15625 2955.1875 C 425.855469 2960.0625 422.992188 2932.085938 423.234375 2924.921875 C 423.625 2913.433594 424.164062 2907.542969 429.832031 2897.378906 C 454.171875 2983.042969 537.191406 3046.636719 617.402344 3077.058594 C 643.984375 3087.140625 701.582031 3104.964844 648.035156 3061.0625 C 583.722656 3008.449219 577.90625 2995.871094 562.621094 2911.664062 C 560.242188 2898.539062 560.773438 2884.945312 556.925781 2906.789062 C 551.816406 2935.765625 562.328125 2966.101562 566.980469 2994.902344 C 539.976562 2962.894531 533.914062 2934.570312 527.582031 2894.308594 C 518.28125 2922.210938 528.175781 2948.15625 531.371094 2976.640625 C 491.824219 2957.152344 434.980469 2890.109375 448.945312 2843.222656 C 458.546875 2810.984375 479.441406 2786.511719 478 2750.949219 C 463.367188 2783.953125 453.949219 2804.558594 435.285156 2836.027344 C 423.90625 2855.203125 415.671875 2872.171875 406.8125 2892.5625 C 365.355469 2846.835938 350.300781 2791.53125 343.234375 2731.902344 C 342.3125 2724.144531 342.621094 2723.421875 339.445312 2732.773438 C 336.425781 2741.664062 335.425781 2756.023438 333.648438 2765.898438 C 308.980469 2746.980469 279.296875 2654.628906 273.9375 2622.808594 C 268.40625 2582.296875 271.738281 2559.3125 271.335938 2520.441406 C 270.855469 2474.589844 253.015625 2584.148438 252.742188 2590.527344 C 251.707031 2614.796875 252.667969 2614.390625 241.742188 2586.582031 C 220.203125 2531.773438 227.613281 2502.425781 225.976562 2447.746094 C 225.355469 2427.085938 217.539062 2475.515625 217.226562 2477.097656 C 206.203125 2467.308594 201.738281 2331.230469 199.5625 2306.46875 C 186.355469 2325.449219 187.171875 2341.65625 181.851562 2293.230469 C 174.234375 2211.621094 189.253906 2138.101562 186.578125 2058.78125 C 184.335938 1992.320312 169.085938 2113.621094 169.3125 2031.550781 C 170.378906 1974.71875 191.179688 1926.828125 194.265625 1871.648438 C 165.839844 1903.019531 172.601562 1888.71875 175.03125 1849.570312 C 179.730469 1773.949219 188.320312 1717.898438 202.847656 1643.839844 C 208.492188 1614.230469 213.128906 1587.960938 211.878906 1557.570312 C 205.066406 1575.828125 199.398438 1594.320312 193.367188 1612.851562 C 193.117188 1580.238281 198.398438 1548.320312 199.765625 1515.550781 C 200.214844 1504.800781 203.015625 1508.769531 215.246094 1512.550781 C 308.476562 1541.648438 429.011719 1551.609375 525.980469 1544.480469 C 554.703125 1542.371094 547.246094 1552 540.378906 1576.871094 C 534.265625 1599 524.226562 1620.101562 517.632812 1642.671875 C 512.097656 1662.761719 506.535156 1682.851562 501.027344 1702.949219 C 494.027344 1728.519531 491.035156 1747.320312 493.351562 1773.980469 C 496.902344 1801.371094 503.964844 1813.699219 504.734375 1844.308594 C 505.628906 1879.558594 506.65625 1888.550781 520.933594 1920.488281 C 522.957031 1925.019531 538.378906 1957.859375 531.296875 1959.289062 C 523.667969 1960.828125 490.453125 1953.910156 481.796875 1950.441406 C 457.238281 1940.621094 436.179688 1914.328125 419.550781 1907.871094 C 415.136719 1912.539062 445.824219 1948.019531 438.589844 1948.160156 C 422.054688 1948.488281 389.652344 1940.761719 373.871094 1935.019531 C 297.035156 1907.03125 231.804688 1838.390625 218.097656 1756.550781 C 213.71875 1723.101562 218.242188 1711.191406 223.691406 1680.101562 C 217.078125 1683.679688 207.542969 1723.019531 206.320312 1732.441406 C 197.445312 1801.011719 220.109375 1858.960938 266.578125 1909.03125 C 291.128906 1935.480469 320.671875 1952.191406 351.847656 1969.558594 C 406.800781 1998.800781 465.585938 1999.300781 525.351562 2006.210938 C 647.082031 2033.738281 616.726562 2143.089844 730.6875 2194.679688 C 768.710938 2211.898438 772.71875 2195.941406 793.59375 2199.949219 C 832.539062 2207.429688 912.855469 2163.628906 936.453125 2132.871094 C 982.882812 2072.359375 985.96875 2032.289062 1064.410156 1999.789062 Z M 557.632812 1945.359375 C 538.703125 1910.378906 529.398438 1880.390625 530.585938 1840.308594 C 530.820312 1835.109375 537.769531 1845.199219 540.683594 1848.339844 C 567.464844 1878.949219 585.933594 1909.589844 617.242188 1937.101562 C 623.496094 1942.570312 652.984375 1967.550781 624.273438 1948.929688 C 620.132812 1946.210938 615.546875 1943.480469 611.242188 1941.019531 C 629.914062 1960.070312 647.605469 1969.410156 672.753906 1977.511719 C 661.003906 1977.238281 650.574219 1976.640625 669.949219 1982.949219 C 672.125 1983.660156 673.578125 1984.179688 675.570312 1985.339844 C 670.425781 1986.898438 647.664062 1988.171875 667.769531 1989.609375 C 670.320312 1989.800781 689.226562 1989.640625 689.589844 1990.878906 C 689.46875 1993.269531 681.597656 1995.089844 693.597656 1995.039062 C 696.9375 1995.019531 711.976562 1994.019531 713.636719 1994.558594 C 713.007812 1995.601562 686.675781 2000.871094 685.667969 2002.929688 C 684.859375 2004.578125 710.617188 2001.050781 713.945312 2001.140625 C 708.917969 2005.550781 701.925781 2007.261719 698.816406 2010 C 704.617188 2011.390625 732.246094 2005.640625 734.203125 2007.539062 C 733.757812 2008.53125 730.242188 2010.851562 728.632812 2013.191406 C 738.710938 2011.140625 747.621094 2005.921875 758.105469 2003.839844 C 754.382812 2007.148438 739.703125 2017.25 738.464844 2020.621094 C 743.132812 2020.28125 767.511719 2005.441406 770.84375 2005.929688 C 769.433594 2008.96875 743.921875 2021.488281 749.914062 2024.269531 C 753.320312 2025.859375 769.195312 2023.96875 774.515625 2023.878906 C 790.878906 2023.621094 807.398438 2024.96875 823.753906 2025.640625 L 824.988281 2025.691406 C 837.390625 2026.171875 860.519531 2027.339844 871.757812 2023.429688 C 848.976562 2019.640625 842.617188 2018.21875 823.3125 2004.921875 C 843.542969 2013.121094 851.855469 2016.171875 874.035156 2017.019531 C 873.308594 2016.679688 849.722656 2006 860.589844 2007.859375 C 863.941406 2008.429688 871.933594 2010.78125 874.6875 2008.460938 C 878.339844 2005.371094 878.769531 2005.101562 883.773438 2006.359375 C 890.496094 2008.050781 908.566406 2013.46875 890.683594 2003.820312 C 883.023438 1999.679688 888.582031 2001.460938 894.347656 2002.140625 C 925.628906 2005.820312 919.949219 2001.738281 892.519531 1995.890625 C 894.261719 1995.820312 899.320312 1996.449219 901.71875 1996.519531 C 907.773438 1996.691406 927.164062 1996.5 931.832031 1993.398438 C 928.382812 1990.800781 916.746094 1992.230469 927.304688 1990.488281 C 932.425781 1989.648438 934.761719 1988.75 939.132812 1985.910156 C 932.871094 1980.28125 924.199219 1982.359375 943.8125 1979.109375 C 958.046875 1976.75 945.902344 1977.101562 953.761719 1971.039062 C 962.894531 1964 967.898438 1965.5 955.457031 1963.328125 C 958.875 1962.011719 971.632812 1960.089844 970.804688 1955.148438 C 970.367188 1952.539062 972.171875 1952.21875 974.855469 1951.199219 C 977.328125 1950.261719 993.40625 1945.578125 986.238281 1942 C 982.722656 1940.25 984.414062 1937.980469 986.503906 1935.078125 C 991.484375 1928.160156 998.59375 1922.28125 1004.179688 1915.71875 C 1010.75 1907.179688 1078.910156 1801.679688 1065.789062 1871.28125 C 1053.71875 1935.351562 996.675781 2043.101562 932.839844 2069.109375 C 901.765625 2081.78125 863.699219 2081.511719 830.683594 2080.488281 C 802.980469 2079.570312 778.117188 2082.078125 750.78125 2083.261719 C 701.609375 2085.390625 670.773438 2076.390625 631.808594 2044.960938 C 601.523438 2020.53125 576.398438 1979.179688 557.632812 1945.359375 Z M 304.398438 1035.308594 C 385.976562 1028.671875 530.023438 1030.320312 591.515625 1091.410156 C 595.804688 1095.671875 599.640625 1099.988281 603.589844 1104.558594 C 662.277344 1180.609375 635.785156 1317.289062 591.464844 1394.851562 C 520.34375 1503.46875 422.238281 1501.300781 305.460938 1483.730469 C 187.667969 1465.558594 152.160156 1430.289062 124.929688 1315.941406 C 101.453125 1214.859375 82.042969 1087.53125 199.273438 1054.089844 C 232.121094 1044.71875 269.988281 1038.328125 304.398438 1035.308594 Z M 1367.109375 1052.039062 C 1459.28125 1079.449219 1470.609375 1137.089844 1462.949219 1225.078125 C 1458.46875 1276.550781 1445.539062 1357.851562 1419.898438 1402.609375 C 1360.109375 1485.109375 1275.898438 1489.480469 1182.539062 1493 C 1119.140625 1495.289062 1073.710938 1486.058594 1021.320312 1448.871094 C 1014.941406 1443.429688 1012.988281 1439.371094 1005.730469 1433.101562 C 956.929688 1390.949219 931.640625 1268.78125 932.089844 1207.109375 C 932.617188 1167.851562 938.941406 1127.320312 965.328125 1096.550781 C 969.1875 1092.109375 976.183594 1086.628906 980.808594 1082.578125 C 983.71875 1080 986.632812 1077.421875 989.542969 1074.839844 L 990.515625 1073.980469 C 1050.769531 1032.691406 1172.589844 1030.640625 1243.761719 1034.089844 C 1268.878906 1035.308594 1293.839844 1037.570312 1318.671875 1041.640625 C 1335.121094 1044.390625 1350.980469 1047.828125 1367.109375 1052.039062 Z M 776.296875 1679.78125 C 764.40625 1643.558594 751.449219 1619.949219 715.976562 1602.339844 C 674.863281 1586.378906 606.28125 1608.398438 607.269531 1537.628906 C 607.363281 1530.671875 608.121094 1524.609375 608.960938 1517.730469 C 612.769531 1491.121094 602 1539.628906 601.703125 1544.039062 C 599.15625 1603.578125 629.984375 1633.449219 678.246094 1661.121094 C 724.1875 1687.058594 708.066406 1679.710938 736.34375 1721.359375 C 765.515625 1764.320312 788.800781 1763.328125 792.015625 1824.730469 C 792.175781 1830.121094 792.183594 1835.53125 792.203125 1840.929688 C 792.097656 1867.171875 790.253906 1894.101562 786.386719 1920.050781 C 782.449219 1943.480469 751.28125 1937.300781 733.867188 1934.878906 C 642.023438 1922.109375 591.230469 1855.230469 531.675781 1792.441406 C 498.359375 1756.390625 508.617188 1733.261719 519.355469 1688.558594 C 542.574219 1595.628906 582.886719 1516.398438 622.613281 1430.210938 C 639.066406 1394.171875 654.777344 1358.011719 667.304688 1320.390625 C 689.285156 1253.621094 691.265625 1217.679688 677.632812 1149.089844 C 675.375 1137.738281 676.476562 1140.289062 688.453125 1134.621094 C 724.78125 1117.429688 740.777344 1108.609375 782.113281 1107.148438 C 814.886719 1107.539062 855.746094 1114.53125 882.617188 1134.480469 C 892.558594 1141.859375 888.121094 1149.710938 885.996094 1161.660156 C 882.835938 1179.449219 881.085938 1192.210938 880.996094 1210.441406 L 881.007812 1213.621094 C 881.738281 1279.378906 910.546875 1339.03125 937.285156 1397.21875 C 969.871094 1463.988281 1008.011719 1521.839844 1038.328125 1591.328125 C 1061.640625 1644.761719 1091.898438 1723.320312 1071.039062 1780.988281 C 1026.171875 1857.300781 951.5625 1941.570312 855.074219 1938.28125 C 837.441406 1937.679688 823.101562 1933.859375 818.140625 1915.410156 C 813.53125 1872.398438 812.496094 1801.910156 837.089844 1765.070312 C 851.820312 1742.988281 869.160156 1720.589844 884.660156 1698.511719 C 905.714844 1668.53125 915.628906 1668.820312 946.613281 1652.449219 C 999.285156 1618.011719 1007.949219 1584.871094 988.414062 1525.398438 C 983.71875 1511.109375 984.929688 1532.339844 984.207031 1539.289062 C 979.820312 1581.601562 965.53125 1586.949219 929.011719 1591.460938 C 873.851562 1598.339844 854.492188 1623.488281 834.683594 1673.128906 C 800.480469 1758.820312 789.253906 1708.351562 781.425781 1694.628906 C 778.835938 1690.078125 777.941406 1684.738281 776.296875 1679.78125 Z M 1469.839844 1054.238281 C 1485.128906 1051.628906 1498.011719 1051.269531 1513.421875 1051.261719 C 1512.628906 1058.738281 1508.519531 1058.789062 1501.160156 1062.328125 C 1493.460938 1066.039062 1475.648438 1073.21875 1469.078125 1064.488281 L 1467.511719 1061.5 C 1465.640625 1056.171875 1466.460938 1055.859375 1469.839844 1054.238281 Z M 111.65625 1052.238281 C 109.699219 1060.53125 92.742188 1070.710938 84.492188 1069.480469 C 79.558594 1068.738281 62.65625 1059.960938 57.113281 1052.128906 C 58.742188 1051.878906 108.535156 1051.960938 111.65625 1052.238281 Z M 1021.839844 678.691406 C 1036.058594 683.199219 1084.789062 687.410156 1101.921875 689.320312 C 1146.601562 694.300781 1157.769531 696.949219 1198.96875 715.988281 C 1214.78125 723.308594 1234.261719 732.789062 1248.320312 743.019531 C 1218.5 738.210938 1171.511719 730.371094 1143.320312 739.511719 C 1144.449219 740.148438 1201.578125 745.691406 1211.488281 747.75 C 1222.03125 749.941406 1231.640625 752.691406 1241.601562 755.96875 C 1251.621094 759.308594 1260.46875 761.859375 1269.898438 766.871094 C 1243.621094 766.789062 1202.578125 761.46875 1178.539062 768.480469 C 1183.320312 771.460938 1203.121094 776.96875 1215.328125 784.070312 C 1240.5 799.449219 1287.179688 825.769531 1299.230469 852.839844 C 1282.28125 848.761719 1267.980469 841.558594 1251.511719 836.261719 C 1262.511719 844.308594 1296.378906 866.03125 1296.5 880.269531 C 1296.601562 893.238281 1254.46875 871.289062 1303.769531 911.78125 C 1322.039062 926.78125 1342.378906 940.921875 1362.28125 953.710938 C 1351.039062 948.199219 1307.738281 924.019531 1299.699219 922.941406 C 1298.550781 924.238281 1320.261719 943.988281 1323.898438 948.441406 C 1330.179688 956.121094 1349.421875 981.308594 1351.800781 989.878906 C 1346.078125 991.539062 1262.5 988.261719 1246.21875 988.078125 C 1147.558594 987 1043.171875 992.089844 956.59375 1044.660156 L 953.773438 1046.398438 L 923.171875 1066.929688 C 923.140625 1066.929688 851.644531 1030.339844 782.089844 1030.570312 C 755.5625 1030.648438 728.976562 1035.359375 704.21875 1042.21875 C 683.492188 1048.128906 667.195312 1054.71875 647.699219 1064.078125 C 637.371094 1069.03125 636.34375 1064.890625 626.722656 1057.878906 C 620.8125 1053.578125 615.109375 1049.941406 608.917969 1046.058594 C 500.144531 980.820312 352.460938 987.328125 229.730469 989.238281 C 238.90625 978.019531 248.132812 967.828125 254.242188 954.699219 C 258.25 946.078125 262.628906 938.28125 267.457031 930.078125 C 257.695312 931.300781 251.082031 934.910156 241.859375 937.128906 C 254.683594 925.800781 275.503906 920.609375 290.492188 910.359375 L 279.671875 908.019531 C 279.464844 907.53125 278.796875 907.871094 278.394531 907.699219 C 286.035156 897.898438 295.886719 891.96875 304.453125 882.5 C 309.480469 876.941406 311.09375 873.589844 316.433594 868.828125 C 321.605469 864.210938 325.789062 860.929688 330.019531 857.03125 C 325.671875 853.398438 322.382812 855.191406 316.683594 852.75 C 322.773438 843.128906 336.6875 826.410156 345.101562 819.179688 C 351.753906 813.460938 355.792969 810.5 358.378906 801.871094 C 345.21875 801.480469 332.054688 801.789062 318.890625 801.78125 C 335.011719 786.199219 385.226562 785.269531 405.488281 772.179688 C 389.53125 766.46875 344 770.730469 324.25 770.078125 C 351.675781 747.988281 455.808594 744.648438 461.667969 736.921875 C 463.027344 735.128906 457.925781 736.609375 455.480469 736.800781 C 423.773438 739.269531 389.378906 742.890625 357.925781 744.171875 C 386.308594 729.710938 415.8125 718 444.339844 703.03125 C 466.136719 691.589844 471.460938 695.648438 496.425781 697.21875 C 527.664062 699.019531 563.675781 700.789062 593.003906 688.421875 C 542.480469 682.480469 491.730469 687.488281 450.636719 650.839844 C 447.703125 648.148438 446.324219 646.410156 444.089844 643.148438 C 464.636719 644.058594 554.988281 653.589844 566.34375 650.160156 C 570.046875 648.421875 545.167969 642.671875 542.949219 642.398438 C 526.5625 640.441406 517.550781 644.078125 542.382812 634.351562 C 582.996094 618.429688 628.949219 603.121094 672.972656 603.589844 C 680.160156 603.96875 674.316406 601.070312 669.855469 598.199219 C 655.9375 589.21875 625.4375 583.078125 673.996094 578.890625 C 679.191406 578.441406 684.367188 577.960938 689.558594 577.480469 C 681.476562 552.5 678.6875 554.769531 662.273438 536.5 C 683.695312 528.25 729.621094 557.070312 746.554688 570.269531 C 761.324219 582.941406 773.390625 598.601562 785.222656 613.949219 C 758.125 549.320312 712.953125 543 654.027344 521.820312 C 637.0625 515.730469 647.945312 513.660156 658.792969 512.410156 C 678.097656 510.199219 689.132812 513.988281 707.574219 518.300781 C 688.609375 487.160156 680.371094 487.691406 650.054688 471.339844 C 695.871094 473.71875 736.648438 494.460938 770.75 524.21875 C 777.050781 530 773.933594 522.53125 773.601562 515.738281 C 772.570312 494.800781 771.628906 474.550781 786.3125 457.910156 C 788.175781 473.199219 786.582031 491.570312 786.40625 507.28125 C 798.140625 489.621094 811.929688 466.511719 831.753906 457.140625 C 841.128906 452.699219 836.660156 464.429688 835.96875 472.320312 C 833.734375 497.699219 833.53125 505.480469 841.941406 530.03125 C 847.535156 544.519531 844.839844 542.25 835.96875 554.019531 C 823.671875 571.710938 818.085938 582.910156 818.144531 605.511719 C 839.960938 583.550781 840.074219 562.539062 875.65625 559.429688 C 892.621094 557.949219 911.28125 572.089844 925.90625 580.691406 C 975.285156 609.871094 1006.78125 633.398438 1066.96875 633.511719 C 1077.671875 632.988281 1088.511719 631.929688 1099.199219 631.058594 C 1112.851562 629.960938 1101.140625 638.820312 1095.328125 645.058594 C 1074.269531 667.660156 1055.410156 672.480469 1026.109375 678 Z M 1509.648438 381.390625 C 1516.828125 498.980469 1499.089844 580.289062 1475.511719 693.46875 C 1474.398438 698.761719 1470.460938 710.011719 1475.96875 712.679688 C 1484.628906 716.871094 1484.738281 718.28125 1479.941406 728.429688 C 1458.980469 772.648438 1439.359375 808.601562 1413.238281 849.808594 C 1410.398438 854.289062 1393.378906 880.101562 1396.089844 884.339844 C 1400.640625 891.410156 1410.550781 880.679688 1393.5 909.460938 C 1390.070312 915.320312 1375.980469 940.609375 1371.101562 942.378906 C 1363.75 945.039062 1345.488281 927.070312 1338.628906 921.96875 C 1335.238281 919.449219 1311.109375 901.050781 1316.949219 895.988281 C 1322.761719 890.960938 1341.410156 896.058594 1336.808594 875.28125 L 1335.160156 869.539062 C 1329.878906 857.019531 1326.140625 853.898438 1320.210938 843.570312 C 1312.949219 830.921875 1330.710938 825.828125 1340.671875 821.859375 C 1381.738281 805.789062 1387.199219 806.578125 1418.949219 771.699219 C 1426.128906 763.800781 1458.421875 723.609375 1451.898438 728.5 C 1438.878906 738.28125 1426.910156 748.21875 1413.320312 757.898438 C 1387.171875 776.511719 1362.941406 790.839844 1333.140625 803.03125 C 1323.011719 807.101562 1342.320312 797.398438 1343.070312 796.960938 C 1354.140625 790.558594 1377.921875 776.859375 1385.058594 766.800781 C 1370.53125 771.53125 1351.621094 781.578125 1379.410156 766.058594 C 1387.769531 761.269531 1421.441406 741.070312 1387.828125 757.378906 C 1387.691406 757.449219 1346.230469 778.53125 1356.828125 770.210938 C 1359.441406 768.261719 1417.390625 726.289062 1402.101562 734.148438 C 1388.949219 740.910156 1344.609375 764.128906 1332.03125 761.789062 C 1328.949219 760.589844 1392.480469 731.828125 1384.851562 730.238281 C 1384.621094 730.191406 1337.699219 745.351562 1328.890625 747.128906 C 1322.589844 748.398438 1316.390625 749.308594 1310.03125 750.140625 C 1374.671875 720.019531 1403.71875 710.429688 1459.839844 662.511719 C 1446.988281 671.921875 1417.769531 694.121094 1404.011719 698.480469 C 1404.359375 693.839844 1419.539062 687.398438 1397.101562 694.648438 C 1371.671875 702.859375 1321.589844 721.761719 1378.578125 695.941406 C 1397.050781 687.71875 1411.058594 683.339844 1426.25 669.101562 C 1415.570312 674.089844 1406.558594 678.140625 1395.328125 681.910156 C 1400.5 678 1402.390625 677.191406 1404.738281 670.839844 C 1383.921875 670.660156 1394.261719 668.699219 1408.121094 662.671875 C 1427.890625 654.058594 1435.71875 650.769531 1450.058594 633.960938 C 1435.039062 642.878906 1409.769531 662.988281 1392.148438 661.011719 C 1396.378906 651.578125 1422.019531 636.121094 1432.148438 625.78125 C 1446.828125 610.789062 1459.539062 593.078125 1470.648438 575.320312 C 1478.089844 563.289062 1452.109375 599.160156 1451.980469 599.328125 C 1426.558594 632.25 1400.929688 650.871094 1358.828125 656.929688 C 1354.160156 657.601562 1349.941406 657.808594 1345.230469 657.921875 C 1388.789062 646.128906 1411.328125 639.171875 1439.738281 601.949219 C 1401.140625 637.859375 1382.539062 643.078125 1330.378906 642.339844 C 1307.738281 641.078125 1327.46875 640.230469 1336.921875 638.929688 C 1372.28125 633.488281 1387.199219 630.601562 1415.929688 607.828125 C 1395.398438 619.160156 1391.621094 621.070312 1367.988281 623.109375 C 1387.910156 614.261719 1406.769531 607.820312 1425.199219 595.710938 C 1389.140625 606.910156 1375.039062 613.449219 1335.921875 613.839844 C 1395.28125 599.140625 1419.429688 576.039062 1457.679688 530.371094 C 1445.171875 538.839844 1434.28125 548.441406 1421.089844 557.230469 C 1407.160156 566.519531 1374.140625 588.789062 1358.058594 589.691406 C 1387.441406 573.890625 1449.191406 536.191406 1463.429688 506.449219 C 1466.910156 499.199219 1454.828125 517.078125 1453.96875 518.101562 C 1444.640625 529.171875 1430.589844 540.058594 1417.210938 545.671875 C 1438.890625 511.691406 1468.558594 503.050781 1479.148438 456.878906 C 1459.371094 500.230469 1429.320312 528.011719 1386.679688 548.621094 C 1365.648438 558.78125 1396.71875 536.140625 1400.089844 533.308594 C 1413.820312 521.738281 1427.351562 510.269531 1440.398438 497.910156 C 1416.609375 511.21875 1395.050781 532.421875 1372.570312 544.039062 C 1363.78125 548.578125 1380 533.589844 1380.78125 532.808594 C 1385.328125 528.21875 1433.628906 481.441406 1422.261719 488.550781 C 1411.191406 495.480469 1386.140625 521.78125 1375.21875 523.730469 C 1378.03125 519.5 1388.621094 514.730469 1395.898438 502.261719 C 1398.410156 497.96875 1394.28125 501.820312 1392.371094 502.898438 C 1386.519531 506.171875 1380.679688 510.371094 1374.980469 514.019531 C 1392.839844 485.058594 1399.53125 489.25 1418.699219 468.738281 C 1429.441406 457.25 1395.191406 482.851562 1393.351562 484.109375 C 1371.480469 499.101562 1350.339844 514.46875 1326.5 526.300781 C 1349.960938 507.820312 1368.210938 493.839844 1393.640625 477.789062 C 1408.109375 468.660156 1418.101562 460 1430.339844 448.191406 C 1407 460.839844 1385.800781 476.539062 1362.851562 489.929688 C 1353.410156 495.359375 1337.800781 505.441406 1357.078125 489.441406 C 1386.210938 465.269531 1414.21875 460.058594 1437.570312 424.480469 C 1443.25 415.828125 1429.261719 431.75 1427.601562 433.300781 C 1414.078125 445.878906 1391.96875 464.429688 1374.921875 471.089844 C 1384.121094 460.308594 1400.199219 446.871094 1410.878906 436.160156 C 1417.53125 429.488281 1438.421875 408.789062 1438.640625 399.199219 C 1438.109375 399.421875 1389.828125 444.75 1413.449219 414.089844 C 1429.429688 393.359375 1443.640625 384.589844 1454.230469 358.609375 L 1455.769531 354.839844 C 1458.390625 347.621094 1449.140625 362.851562 1447.921875 364.46875 C 1417.691406 403.75 1369.171875 457.851562 1326.46875 482.621094 C 1362.53125 443.558594 1398.769531 421.449219 1425.261719 372.800781 C 1409.539062 382.839844 1398.640625 392.121094 1380.890625 399.28125 C 1417.550781 371.679688 1440.621094 365.859375 1457.429688 317.839844 C 1464.238281 298.410156 1461.988281 304.550781 1451.621094 317.449219 C 1433.519531 339.980469 1404.460938 376.828125 1438.621094 320.601562 C 1441.539062 315.808594 1455.210938 288.058594 1441.75 309.851562 C 1422 341.800781 1423.839844 335.671875 1437.398438 302.71875 C 1444.851562 284.609375 1449.570312 272.359375 1452.949219 252.808594 C 1446.148438 274.800781 1442.769531 286.371094 1425.691406 302.820312 C 1432.359375 281.519531 1425.25 296.058594 1417.941406 305.96875 C 1373.039062 366.789062 1416.730469 298.691406 1425.730469 282.570312 C 1434.609375 266.648438 1407.101562 306.519531 1406.96875 306.691406 C 1393.351562 324.558594 1402.820312 307.230469 1397.410156 311.949219 C 1388.761719 319.488281 1371.261719 338.320312 1388.671875 312.859375 C 1392.710938 306.960938 1411.398438 281.851562 1411.878906 276.230469 C 1408.511719 276.289062 1377.050781 320.878906 1371.050781 327.511719 C 1367.730469 331.191406 1348.160156 350.660156 1363.628906 333.851562 C 1372.570312 324.128906 1379.089844 315.648438 1385.558594 304.101562 C 1379.359375 307.839844 1374.621094 311.800781 1367.859375 314.710938 C 1378.898438 274.960938 1412.191406 271.898438 1422.378906 199.890625 C 1425.140625 180.339844 1425.898438 160.710938 1428.761719 141.058594 C 1431.148438 125.410156 1436.269531 137.738281 1441.46875 145.941406 C 1476.589844 202.828125 1491.75 316.558594 1497.46875 383.820312 C 1501.53125 383.019531 1505.589844 382.199219 1509.648438 381.390625 Z M 221.75 423.628906 C 236.652344 438.390625 254.230469 452.589844 270.234375 466.261719 C 304.089844 495.699219 261.910156 466 253.78125 459.769531 C 215.511719 427.519531 195.652344 400.171875 163.601562 363.761719 C 146.023438 343.789062 180.550781 396.628906 181.316406 397.679688 C 190.25 408.730469 202.703125 420.859375 210.671875 431.53125 C 214.207031 440.828125 196.199219 424.039062 193.847656 422.171875 C 160.097656 395.300781 179.003906 413.089844 197.355469 432.019531 C 229.835938 465.53125 229.84375 466.628906 195.84375 437.859375 C 146.609375 396.199219 233.246094 479.449219 238.234375 484.050781 C 253.96875 498.558594 268.578125 513.769531 284.421875 527.871094 C 296.71875 538.808594 231.828125 485.640625 223.535156 479.96875 C 174.140625 446.238281 252.945312 508.691406 257.296875 512.320312 C 284.285156 534.851562 207.980469 486.769531 207.742188 486.609375 C 178.191406 465.941406 218.503906 500.488281 222.90625 504.648438 C 230.5625 511.878906 238.371094 519.109375 244.605469 527.640625 C 234.695312 521.058594 220.480469 510.519531 209.96875 506.199219 C 208.765625 508.390625 244.640625 542.609375 193.097656 500.851562 C 174.007812 485.378906 219.476562 530.179688 219.625 530.320312 C 270.121094 576.441406 176.757812 505.601562 167.878906 502.21875 C 170.054688 508.148438 217.109375 544.96875 226.5625 554.550781 C 235.214844 563.308594 223.65625 555.71875 219.023438 553.261719 C 193.800781 539.878906 162.164062 516.050781 148.953125 490.269531 C 120.964844 435.640625 144.554688 493.929688 154.597656 510.46875 C 176.847656 547.121094 204.078125 570.28125 243.300781 586.691406 C 259.828125 593.609375 224.496094 583.671875 221.183594 582.28125 C 211.339844 578.140625 201.15625 571.921875 191.566406 566.898438 C 210.378906 593.851562 190.285156 571.179688 176.234375 561.988281 C 158.371094 550.308594 191.507812 579.398438 192.378906 580.050781 C 216.382812 598.03125 235.144531 601.589844 260.902344 612.710938 C 287.523438 624.191406 220.242188 610.011719 215.945312 608.601562 C 198.792969 602.96875 187.480469 596.929688 172.085938 587.78125 C 178.964844 594.199219 185.480469 597.820312 187.914062 606.808594 C 190.257812 615.46875 235.34375 632.648438 245.234375 635.871094 C 257.613281 639.261719 269.804688 641.019531 282.492188 642.699219 C 227.578125 648.410156 202.230469 627.320312 159.371094 597.820312 C 179.125 617.410156 194.746094 625.878906 217.726562 640.371094 C 228.835938 647.570312 207.957031 641.789062 217.875 644.699219 C 295.585938 667.550781 210.113281 649.96875 189.890625 644.96875 C 159.3125 637.410156 245.058594 676.359375 217.460938 668.359375 C 195.980469 662.140625 176.355469 640.351562 159.199219 630.71875 C 176.699219 655.429688 196.363281 667.128906 221.851562 682.191406 C 250.109375 698.820312 196.105469 673.109375 192.683594 672.871094 C 189.019531 677.730469 198.421875 679.800781 180.640625 671.070312 C 168.75 665.238281 212.800781 699.730469 220.273438 703.648438 C 226.664062 707 280.007812 729.828125 240.347656 716.871094 C 216.289062 709.011719 198.777344 696.46875 177.136719 684.410156 C 211.246094 720.890625 250.425781 729.621094 293.457031 749.078125 C 315.605469 759.089844 283.652344 751.378906 278.4375 750.320312 C 257.667969 746.070312 237.789062 740.308594 217.511719 734.25 C 236.816406 745.160156 255.074219 749.828125 274.367188 761.851562 C 270.800781 760.691406 232.785156 747.578125 230.902344 747.980469 C 231.425781 750.210938 273.109375 772.71875 274.019531 774.050781 C 271.523438 777.679688 212.734375 750.589844 206.261719 747.851562 C 227.425781 766.140625 241.484375 772.171875 266.90625 782.601562 C 241.566406 776.320312 233.460938 766.53125 215.199219 761.078125 C 203.289062 757.53125 231.921875 777.988281 232.285156 778.269531 C 237.652344 782.328125 243.109375 786.351562 248.59375 790.261719 C 254.847656 794.078125 280.519531 803.761719 256.121094 796.339844 C 211.355469 777.449219 206.6875 757.230469 172.675781 733.101562 C 159.109375 723.46875 182.875 747.101562 183.796875 748.03125 C 192.203125 756.089844 200.941406 763.789062 209.617188 771.550781 C 220.664062 782.269531 234.542969 788.761719 244.277344 800.53125 C 226.339844 792.941406 206.378906 776.058594 192.078125 762.730469 C 204.21875 780.558594 225.96875 797.351562 244.238281 808.691406 C 265.460938 820.929688 288.132812 830.03125 312.988281 827.660156 C 308.335938 837.871094 300.921875 849.488281 289.507812 852.601562 C 278.269531 853.941406 267.949219 846.058594 258.640625 840.820312 C 265.449219 857.199219 271.59375 860.421875 288.152344 864.941406 C 292.378906 866.070312 295.535156 867.019531 298.984375 869.828125 C 291.554688 873.609375 288.707031 876.640625 282.367188 880.890625 C 274.714844 886.019531 267.824219 885.351562 259.058594 883.789062 C 262.835938 889.058594 264.296875 889.820312 268.960938 893.609375 C 272.410156 896.421875 268.910156 898.378906 265.996094 900.601562 C 250.214844 912.300781 240.886719 917.980469 227.535156 933.21875 C 226.105469 934.859375 225.191406 935.828125 223.335938 937.011719 C 216.683594 929.128906 213.550781 915.851562 211.53125 905.871094 C 223.6875 897.828125 220.367188 892.738281 215.074219 879.441406 C 211.449219 870.339844 207.632812 862.578125 203.359375 854.519531 C 181.199219 813.371094 143.566406 748.460938 134.722656 704.039062 C 150.117188 697.75 143.070312 692.089844 138.746094 675.25 C 114.269531 577.289062 97.003906 479.230469 100.332031 377.820312 C 100.484375 373.148438 100.613281 370.300781 102.621094 366.011719 C 126.34375 374.261719 122.21875 383.570312 125.039062 340.898438 C 129.855469 276.28125 145.710938 195.988281 177.789062 139.25 C 179.976562 135.378906 181.527344 133.25 184.945312 130.378906 C 195.863281 226.679688 190.9375 226.28125 243.128906 310.960938 C 267.230469 349.75 221.265625 295.320312 217.328125 290.058594 C 206.457031 275.550781 197.808594 260.539062 189.816406 244.300781 C 201.945312 283.550781 231.480469 329.53125 268.25 349.46875 C 238.8125 337.820312 235.273438 329.101562 215.699219 306.199219 L 213.179688 303.289062 C 209.566406 299.191406 207.253906 296.898438 202.46875 294.230469 C 208.527344 309.96875 216.871094 313.78125 223.871094 327.371094 C 210.878906 323.179688 191.632812 294.730469 181.054688 283.921875 C 184.699219 295.339844 188.949219 303.890625 191.613281 315.871094 C 184.109375 309.398438 180.195312 303.5 173.71875 296.359375 C 177.046875 304.890625 180.765625 313.058594 183.898438 321.679688 C 168.988281 312.730469 164.257812 294.070312 156.558594 279.53125 C 160.621094 300.320312 180.472656 330.910156 181.164062 343.410156 C 181.753906 354.121094 172.726562 336.878906 170.691406 334 C 163.242188 323.449219 155.746094 310.601562 148.574219 300.851562 C 141.144531 290.738281 167.578125 346.960938 173.320312 357.070312 C 187.253906 381.640625 202.394531 403.011719 221.75 423.628906 Z M 1291.300781 286.71875 C 1289.710938 300.21875 1290.570312 322.921875 1284.5 334.359375 C 1283.71875 324.671875 1283.609375 315.148438 1283.238281 305.441406 C 1282.28125 316.488281 1277.480469 367.070312 1273.710938 373.570312 L 1273.230469 373.578125 L 1272.800781 372.609375 C 1270.421875 363.929688 1270.738281 338.871094 1267.921875 367.121094 C 1266.429688 382.03125 1263.089844 395.691406 1261.199219 410.421875 C 1260.660156 397.601562 1260.851562 384.480469 1259.851562 371.75 C 1253 396.761719 1254.871094 433.730469 1245.398438 456.449219 C 1243.210938 452.988281 1249.660156 390.519531 1243.128906 424.621094 C 1240.441406 439.128906 1234.160156 497.789062 1230.589844 505.269531 C 1224.421875 505.308594 1224.929688 423.949219 1220.230469 473.601562 C 1218.519531 491.679688 1220.300781 509.351562 1218.351562 527.941406 C 1213.878906 514.039062 1211.410156 501.261719 1208.46875 487.058594 C 1209.640625 504.960938 1214.839844 518.441406 1208.148438 535.839844 C 1204.140625 526.789062 1199.601562 518.488281 1195.011719 509.761719 C 1195.230469 538.308594 1207.070312 565.230469 1197.808594 593.128906 C 1187.710938 569.488281 1196.449219 537.96875 1187.640625 521.601562 C 1186.539062 519.550781 1186.46875 533.78125 1186.449219 534.160156 C 1185.210938 557.019531 1186.558594 579.550781 1183.679688 602.398438 L 1183.261719 605.789062 C 1177.058594 648.269531 1179.300781 617.300781 1179.578125 598.570312 C 1179.960938 573.628906 1180.699219 546.070312 1174.390625 521.839844 C 1168.660156 562.140625 1180.269531 591.78125 1169.039062 635.128906 C 1165 612.671875 1169.121094 588.160156 1164.921875 569.761719 C 1160.691406 551.230469 1162 598.761719 1162.011719 599.710938 C 1161.570312 622.699219 1160.828125 642.820312 1154.011719 665.039062 C 1150.078125 627.679688 1157.210938 596.640625 1155.648438 561 C 1154.238281 528.960938 1149.21875 617.589844 1149.199219 617.871094 L 1149.160156 618.550781 C 1148.691406 626.191406 1148.25 633.828125 1147.820312 641.46875 C 1147.738281 642.839844 1147.660156 644.21875 1147.570312 645.601562 C 1147.550781 645.851562 1145.640625 676.898438 1140.980469 664.261719 C 1136.5 633.621094 1140.730469 588.558594 1140.339844 556.050781 C 1140.109375 536.53125 1135.980469 612.238281 1135.75 614.980469 C 1134.230469 632.78125 1132 649.078125 1126.519531 666.160156 C 1121.210938 640.710938 1127.210938 622.878906 1128.078125 598.171875 C 1128.191406 581.390625 1121.828125 598.75 1122.898438 575.960938 C 1125.238281 526.28125 1120.851562 592.058594 1108.671875 597.601562 C 1099.320312 601.859375 1102.289062 585.820312 1102.578125 580.421875 C 1104.75 540.070312 1099.300781 593.609375 1091.011719 601.828125 C 1087.558594 592.289062 1088.890625 581.140625 1087.609375 571.101562 C 1087 571.460938 1075.300781 620.761719 1074.25 595.898438 C 1073.75 584.140625 1076.898438 578.351562 1078.171875 567.871094 C 1073.078125 572.78125 1069.339844 609.308594 1064.621094 602.648438 C 1059.460938 595.398438 1064.289062 595.75 1056.640625 602.800781 C 1049.308594 609.539062 1073.390625 558.640625 1058.53125 585.351562 C 1043.039062 613.171875 1044.789062 604.890625 1051.621094 582.519531 C 1045.53125 589.128906 1042.890625 595.441406 1037.46875 602.488281 C 1028.609375 593.679688 1037.421875 603.078125 1024.339844 600.871094 C 1008.300781 598.171875 998.265625 603.800781 1023.109375 584.871094 C 1063.148438 554.351562 1080.25 542.609375 1112.578125 502.25 C 1218.128906 369.511719 1238.421875 229.199219 1294.859375 76.628906 C 1301.371094 59.308594 1307.859375 41.808594 1317.019531 25.671875 C 1391.589844 64.769531 1440.351562 145.550781 1405.359375 228.699219 C 1398.730469 244.480469 1387.039062 272.808594 1376.128906 285.160156 C 1377.359375 264.640625 1403.921875 217.988281 1409.25 189.589844 L 1409.640625 185.589844 C 1401.589844 199.011719 1395.359375 220.378906 1388.539062 235.488281 C 1393.191406 216.878906 1398.410156 200.378906 1382.550781 231.710938 C 1376.871094 242.929688 1372 254.679688 1366.539062 266.050781 C 1369.519531 232.640625 1382.519531 200.171875 1388.761719 166.890625 C 1386.148438 177.148438 1384.570312 183.78125 1378.628906 192.800781 C 1376.660156 176.628906 1379.820312 156.039062 1380.109375 139.058594 C 1372.640625 161.609375 1370.050781 184.039062 1363.46875 206.199219 C 1361.039062 214.359375 1363.019531 198.46875 1363.109375 197.320312 C 1365.25 171.160156 1375.761719 91.910156 1359.820312 174.300781 C 1353.761719 205.691406 1353.808594 175.210938 1354.980469 163.929688 C 1356.070312 153.421875 1355.78125 150.609375 1353.121094 140.160156 C 1346.300781 161.730469 1343.210938 182.800781 1337.769531 204.539062 C 1338.339844 183.378906 1341.441406 162.460938 1342.789062 141.300781 C 1334.648438 158.03125 1337.890625 167.25 1329.171875 184.289062 C 1327.238281 164.300781 1333.808594 146.480469 1335.988281 126.648438 C 1339.328125 78.121094 1334.199219 112.390625 1331.289062 137.078125 C 1325.589844 183.160156 1324.421875 161.949219 1324.398438 132.609375 C 1324.410156 130.308594 1324.210938 90.519531 1323.578125 100.148438 C 1323.398438 102.910156 1323.339844 105.609375 1323.25 108.371094 C 1322.480469 136.171875 1322.949219 184.449219 1315.140625 209.730469 C 1315.328125 191.75 1315.910156 176.121094 1313.851562 158.089844 C 1312.269531 145.53125 1311.949219 130.578125 1310.710938 117.390625 C 1310.078125 110.679688 1309.539062 104.121094 1309.148438 97.390625 C 1303.230469 127.351562 1303.851562 170.328125 1302.121094 202.039062 C 1300.390625 234.859375 1299.828125 266.390625 1295.101562 299.058594 C 1291.011719 292.371094 1293.089844 293.558594 1291.300781 286.71875 Z M 413.007812 344.339844 C 437.761719 403.488281 466.742188 457.269531 508.613281 506.230469 C 533.171875 534.679688 557.09375 555.671875 586.230469 579.179688 C 589.636719 581.921875 589.457031 583.128906 589.214844 587.410156 C 565.367188 588.96875 577.136719 583.5 563.796875 578.078125 C 550.226562 572.570312 564.027344 605.679688 546.234375 584.851562 C 541.734375 579.570312 538.332031 573.308594 534.753906 567.390625 C 536.144531 575.058594 548.507812 611.769531 527.9375 588.71875 C 518.789062 578.46875 510.636719 552.601562 517.828125 577.21875 C 526.453125 609.730469 513.550781 579.609375 506.175781 576.421875 C 499.800781 585.710938 507.855469 637.179688 497.222656 597 C 487.417969 559.96875 489.164062 587.019531 487.609375 604.851562 C 487.132812 610.300781 486.394531 613.839844 485.0625 619.121094 C 474.898438 613.929688 476.503906 601.429688 475.855469 591.140625 C 472.652344 540.148438 468.621094 621.308594 467.066406 625.78125 C 462.714844 635.859375 461.164062 611.03125 461.003906 609.429688 C 459.90625 598.699219 456.800781 538.941406 454.734375 534.058594 C 450.65625 534.71875 451.625 607.96875 451.25 616.300781 C 450 640.210938 443.089844 608.628906 442.53125 602.519531 C 441.421875 588.441406 443.101562 525.890625 439.554688 519.289062 C 436.429688 513.46875 434.386719 600.25 433.058594 614.390625 C 430.628906 638.210938 426.292969 578.03125 426.261719 577.101562 C 425.523438 552.550781 427.824219 527.980469 427.03125 504.128906 C 422.941406 525.058594 422.28125 548.628906 419.203125 570.140625 L 418.742188 573.351562 C 418.085938 577.769531 417.09375 581.238281 415.75 585.460938 C 408.25 548.808594 412.914062 521.359375 408.996094 487.019531 C 406.464844 464.839844 404.570312 510.109375 404.574219 511.46875 C 404.671875 551.71875 405.519531 578.328125 398.457031 520.109375 C 397.476562 512.019531 389.238281 443.238281 388.964844 457.449219 C 388.625 475.269531 390.574219 495.390625 390.546875 513.898438 C 388.132812 492.230469 383.769531 470.871094 381.183594 448.929688 C 379.558594 435.171875 377.9375 427.609375 371.832031 415.019531 C 372.480469 425.601562 373.242188 436.210938 373.605469 446.808594 C 364.984375 431.320312 360.714844 376.449219 358.09375 373.578125 C 354.621094 369.78125 362.261719 428.230469 352.84375 390.328125 C 348.726562 373.769531 348.511719 355.71875 345.0625 338.511719 C 341.480469 361.871094 342.707031 373.589844 337.585938 337.191406 C 335.320312 321.101562 333.4375 304.191406 330.757812 288.269531 C 329.386719 280.121094 331.394531 314.378906 331.402344 314.78125 C 331.726562 327.039062 330.953125 326.378906 327.789062 314.96875 C 310.125 251.210938 320.277344 180.878906 313.367188 114.929688 L 313.019531 111.929688 C 310.621094 92.378906 309.398438 69.25 308.078125 109.058594 C 307.496094 126.710938 308.832031 159.019531 301.441406 174.378906 C 297.039062 151.371094 297.6875 119.890625 295.644531 95.449219 C 293.71875 131.089844 297.191406 164.808594 296.308594 199.550781 C 295.023438 214.480469 291.816406 188.789062 291.464844 186.628906 C 291.03125 183.941406 290.621094 181.25 290.234375 178.550781 C 289.363281 170.671875 288.46875 155.488281 284.621094 148.789062 C 280.019531 146.761719 281.710938 184.160156 281.78125 187.199219 C 282.109375 195.648438 282.949219 205.328125 282.742188 213.621094 C 281.003906 205.441406 280.078125 184.460938 278.921875 174.550781 C 277.53125 162.609375 275.6875 147.378906 270.785156 136.390625 C 261.253906 168.609375 272.285156 185.769531 272.296875 214.949219 C 272.308594 239.828125 264.007812 183.230469 263.867188 181.941406 C 261.839844 162.96875 261.386719 143.691406 259.972656 124.640625 C 258.574219 107.710938 259.863281 193.859375 252.703125 127.351562 C 247.632812 80.21875 251.238281 156.238281 251.789062 162.300781 C 252.5625 170.828125 260.132812 217.058594 259.203125 219.050781 C 255.566406 215.289062 244.144531 157.828125 238.425781 145.03125 C 235.96875 139.519531 237.222656 145.460938 237.222656 149.25 C 237.214844 182.570312 250.023438 213.949219 253.726562 246.28125 C 255.609375 262.679688 244.261719 227.539062 243.660156 225 C 243.585938 224.691406 227.441406 152.859375 230.671875 188.398438 C 232.691406 210.640625 240.214844 233.878906 243.867188 256.019531 C 246.285156 270.679688 228.0625 228.78125 227.9375 228.460938 C 222.699219 214.871094 218.683594 200.800781 214.730469 186.789062 L 213.933594 183.960938 C 211.515625 175.378906 214.703125 211.519531 214.789062 212.480469 C 221.859375 245.160156 237.796875 258.539062 247.296875 285.71875 C 254.582031 306.570312 225.390625 261.179688 224.71875 260.050781 C 177.949219 168.828125 199.234375 111.988281 272.957031 46.628906 C 283.054688 37.761719 291.265625 31.871094 304.554688 28.851562 C 325.882812 63.390625 354.695312 175.289062 368.570312 220.128906 C 381.40625 261.589844 397.019531 303.96875 413.007812 344.339844 Z M 1177.019531 1252.328125 C 1178.320312 1247.039062 1183.238281 1242.589844 1188.941406 1242.910156 C 1192.671875 1243.121094 1193.238281 1257.949219 1193.949219 1261.351562 C 1195.761719 1268.808594 1198.28125 1274.890625 1200.53125 1282.050781 C 1201.421875 1284.871094 1200.75 1284.78125 1198.078125 1284.121094 C 1195.78125 1283.488281 1192.671875 1282.089844 1190.539062 1280.941406 C 1181.039062 1275.039062 1174.691406 1263.640625 1177.019531 1252.328125 Z M 1050.578125 1278.261719 C 1048.730469 1261.851562 1054.808594 1253.449219 1069.480469 1246.910156 C 1056.601562 1275.679688 1056.699219 1284.101562 1069.738281 1312.75 C 1071.140625 1315.820312 1072.171875 1316.789062 1068.878906 1314.089844 C 1059.460938 1306.378906 1052.410156 1290.050781 1050.578125 1278.261719 Z M 1230.019531 1275.539062 C 1224.96875 1275.089844 1225.640625 1272.179688 1225.25 1267.488281 C 1224.570312 1259.21875 1225.089844 1251.648438 1227.460938 1243.671875 C 1230.410156 1243.648438 1242.460938 1243.628906 1241.03125 1248.660156 C 1240.210938 1251.519531 1232.089844 1269.28125 1242.589844 1261.769531 C 1246.710938 1258.820312 1250.71875 1253.921875 1254.089844 1251.660156 C 1252.949219 1264.910156 1246.230469 1276.558594 1231.589844 1275.640625 Z M 1248.761719 1305.398438 C 1260.078125 1296.011719 1268.519531 1280.210938 1271.710938 1265.96875 C 1272.710938 1261.21875 1273.101562 1256.96875 1273.101562 1252.121094 C 1273.050781 1247.128906 1271.191406 1248.519531 1268.28125 1245.75 C 1266.75 1244.289062 1272.261719 1245.070312 1273.328125 1245.058594 C 1275.851562 1245.039062 1278.269531 1244.941406 1280.800781 1245.011719 C 1279.738281 1267.550781 1269.25 1300.691406 1249.121094 1313.191406 C 1224.390625 1328.191406 1207.890625 1322.441406 1183.609375 1310.339844 C 1207.300781 1318.191406 1227.730469 1322.339844 1248.761719 1305.398438 Z M 1066.28125 1120.828125 C 1076.371094 1105.898438 1100.261719 1078.410156 1116.058594 1070.429688 C 1121.519531 1067.671875 1113.910156 1074.109375 1112.171875 1075.941406 C 1096.089844 1092.839844 1080.21875 1105.46875 1065.109375 1123.96875 C 1061.160156 1128.820312 1065.769531 1121.640625 1066.28125 1120.828125 Z M 1009.589844 1213.121094 C 1022.570312 1175.941406 1056.429688 1149.28125 1080.820312 1118.371094 C 1101.488281 1092.171875 1117.808594 1076.898438 1143.859375 1056.308594 C 1163.960938 1040.421875 1119.601562 1063.300781 1115.820312 1065.710938 C 1075.828125 1091.179688 1044 1132.710938 1015.550781 1169.988281 C 1010.859375 1176.148438 1006.179688 1182.308594 1001.488281 1188.460938 C 999.640625 1190.898438 1001.230469 1187.96875 1001.480469 1187.28125 C 1012.339844 1159.601562 1029.28125 1142.800781 1042.019531 1118.160156 C 1046.289062 1109.921875 1031.539062 1128.601562 1030.71875 1129.488281 C 1026.578125 1133.960938 1023.660156 1136.660156 1018.621094 1140.101562 C 1027.621094 1119.371094 1041.171875 1105.839844 1053.871094 1087.761719 C 1043.960938 1095.160156 1025.191406 1117.191406 1018.480469 1127.351562 C 1015.179688 1132.328125 1012.089844 1137.460938 1008.988281 1142.558594 C 1003.28125 1151.980469 997.578125 1161.410156 991.871094 1170.828125 C 1002.839844 1145.070312 1017.058594 1120.269531 1034.691406 1098.519531 C 1042.898438 1088.398438 1058.398438 1068.710938 1036.488281 1089.128906 C 1025.410156 1099.449219 1017.308594 1113.820312 1007.828125 1125.851562 C 1006.269531 1127.769531 1004.980469 1129.230469 1002.839844 1130.511719 C 1009.960938 1109 1023.628906 1094.429688 1037.550781 1077.199219 C 1021.648438 1089.980469 1006.429688 1103.328125 990.191406 1115.730469 C 1001.269531 1099.261719 1015.671875 1092.21875 1027.699219 1076.050781 C 1002.078125 1090.871094 990.253906 1103.679688 972.773438 1127.121094 C 971.195312 1129.25 970.019531 1131.128906 967.179688 1131 C 969.027344 1120.800781 979.035156 1110.820312 984.394531 1101.539062 C 928.992188 1137.941406 939.019531 1253.839844 952.875 1309.660156 C 1006.511719 1483.359375 1109.769531 1496.851562 1273.941406 1475.230469 C 1298.050781 1471.851562 1355.988281 1461.820312 1364.140625 1435.070312 C 1366.460938 1427.46875 1357.101562 1439.640625 1356.269531 1440.558594 C 1352.808594 1444.371094 1346.070312 1450.789062 1340.328125 1449.589844 C 1336.808594 1447.859375 1341.429688 1438.28125 1342.53125 1435.800781 C 1349.691406 1419.628906 1359.28125 1409.808594 1361.820312 1391.261719 C 1362.050781 1389.589844 1359.820312 1393.308594 1359.160156 1394.148438 C 1348.078125 1407.988281 1284.070312 1487.859375 1330.128906 1416.921875 C 1342.558594 1397.710938 1349.660156 1385.570312 1353.019531 1362.449219 C 1339.691406 1378.289062 1330.628906 1396.53125 1319.761719 1414.011719 C 1311.808594 1426.648438 1316.480469 1410.910156 1317.730469 1406.121094 C 1322.640625 1387.25 1326.539062 1374.578125 1335.039062 1356.859375 C 1338.859375 1348.898438 1345.339844 1335.71875 1342.449219 1326.890625 C 1338.019531 1337.558594 1330.921875 1353.371094 1324.488281 1362.71875 C 1321.921875 1358.699219 1338.25 1312.738281 1340.148438 1304.039062 C 1340.75 1301.109375 1341.121094 1298.378906 1341.429688 1295.421875 C 1329.171875 1312.570312 1320.148438 1326.03125 1302.371094 1338.269531 C 1307.960938 1328.390625 1314 1322.730469 1319.089844 1311.679688 C 1326.5 1295.609375 1336.808594 1267.121094 1336.089844 1249.550781 C 1333.328125 1257.589844 1319.320312 1294.351562 1315.328125 1298.859375 C 1314.519531 1299.78125 1315.46875 1296.289062 1315.601562 1295.449219 C 1317.671875 1281.980469 1320.679688 1268.71875 1322.808594 1255.378906 C 1323.488281 1251.140625 1324.21875 1251.328125 1320.828125 1252.609375 C 1304.921875 1258.601562 1304.5 1282.46875 1292.660156 1293.421875 C 1291.328125 1294.640625 1293.011719 1291.308594 1293.308594 1290.410156 C 1296.589844 1280.710938 1306.238281 1256.941406 1300.359375 1247.890625 C 1291.621094 1251.769531 1294.710938 1267.96875 1288.910156 1276.539062 C 1289.179688 1266.769531 1289.328125 1257.601562 1289.898438 1247.800781 C 1289.980469 1246.351562 1289.769531 1249.03125 1289.808594 1249.441406 C 1290.808594 1246.039062 1293.089844 1246.648438 1296.460938 1246.011719 C 1315.210938 1242.449219 1334.089844 1239.519531 1352.898438 1236.300781 C 1351.339844 1263.648438 1360.699219 1311.148438 1366.261719 1339.199219 C 1370.890625 1362.519531 1376.21875 1385.589844 1382.390625 1408.550781 C 1383.851562 1414.039062 1385.46875 1421.558594 1388.480469 1426.289062 C 1397.679688 1418.578125 1408.070312 1399.738281 1413.410156 1388.738281 C 1420.089844 1374.660156 1424.828125 1360.191406 1429.570312 1344.488281 C 1439.488281 1311.558594 1444.429688 1276.519531 1448.820312 1241.121094 C 1456.601562 1173.800781 1455.628906 1096.28125 1381.46875 1067.890625 C 1364.53125 1093.050781 1353.410156 1169.171875 1355.488281 1199.890625 C 1355.578125 1200.890625 1356.269531 1206.199219 1356.910156 1206.78125 C 1358.058594 1207.808594 1367.789062 1208.078125 1369.800781 1207.988281 C 1378.429688 1207.640625 1387.449219 1205.28125 1396.050781 1203.941406 C 1390.101562 1210.128906 1379.628906 1212.039062 1371.398438 1213.691406 C 1320.300781 1223.589844 1264.308594 1203.429688 1212.921875 1199.019531 C 1202.300781 1198.171875 1192.070312 1197.980469 1181.441406 1198.601562 C 1156.53125 1200.160156 1131.820312 1208.398438 1112.101562 1209.339844 C 1129.800781 1204.199219 1143.261719 1198.960938 1164.398438 1194.761719 C 1208.171875 1186.199219 1232.261719 1187.671875 1275.039062 1196.128906 C 1295.851562 1200.238281 1322.011719 1205.21875 1343.078125 1205.070312 C 1345.921875 1205.050781 1344.75 1203.351562 1344.308594 1200.191406 C 1341.898438 1187.789062 1334.070312 1186.871094 1322.761719 1181.039062 C 1300.699219 1169.691406 1289.5 1166.609375 1265.46875 1158.78125 C 1246.898438 1152.71875 1245.75 1152.25 1265.941406 1154.71875 C 1293.28125 1158.058594 1325.199219 1165.460938 1350.101562 1177.328125 C 1355.199219 1179.761719 1344.191406 1168.730469 1343.441406 1168.160156 C 1325.929688 1154.921875 1291.519531 1151.648438 1269.910156 1147.480469 C 1255.328125 1144.660156 1284.128906 1145.550781 1285.320312 1145.578125 C 1307.371094 1146.109375 1316.339844 1147.820312 1337.5 1152.851562 C 1349.070312 1155.609375 1355.03125 1156.761719 1340.808594 1148.53125 C 1317.078125 1134.78125 1276.730469 1131.078125 1249.398438 1129.671875 C 1258.089844 1122.910156 1275.621094 1124.96875 1286.339844 1125.210938 C 1306.820312 1125.671875 1313.550781 1126.941406 1332.679688 1133.460938 C 1347.78125 1138.601562 1359.941406 1136.789062 1335.761719 1127.859375 C 1306.398438 1117.46875 1267.128906 1111.609375 1237.5 1123.308594 C 1221.660156 1129.558594 1199.449219 1141.820312 1183.949219 1145.300781 C 1193.179688 1138.929688 1231.53125 1121.511719 1243.25 1117.140625 C 1279.640625 1103.550781 1297.730469 1108.480469 1334.300781 1116.941406 C 1340.308594 1118.328125 1345.488281 1119.328125 1351.691406 1118.851562 C 1317.808594 1106.78125 1277.398438 1097.328125 1241.78125 1107.070312 C 1220.820312 1112.800781 1284.578125 1102.53125 1230.269531 1117.199219 C 1217.75 1120.578125 1204.109375 1123.871094 1191.238281 1125.5 C 1204.609375 1115.109375 1222.960938 1108.78125 1238.160156 1101.070312 C 1234.820312 1100.28125 1199.449219 1114.988281 1194.199219 1117.539062 C 1164.300781 1132.050781 1139.429688 1155.5 1113.71875 1176.621094 C 1169.921875 1107.25 1225.75 1077.289062 1316.460938 1092.679688 C 1330.050781 1095.160156 1341.308594 1099.78125 1354.390625 1102.480469 C 1348.71875 1093.699219 1327.28125 1092.429688 1317.210938 1090.730469 C 1250.398438 1080.230469 1182.21875 1086.269531 1133.328125 1138.078125 C 1085.671875 1188.589844 1122.601562 1139.960938 1141.210938 1120.851562 C 1152.441406 1109.320312 1162.191406 1102.578125 1173.660156 1092.429688 C 1184.519531 1082.820312 1143.121094 1110.261719 1141.820312 1111.179688 C 1130.601562 1119.210938 1113.929688 1131.460938 1105.941406 1142.550781 C 1117.25 1122.140625 1129.871094 1116.761719 1143.878906 1100.410156 C 1119.96875 1109.839844 1088.738281 1145.578125 1069.550781 1164.488281 C 1063.898438 1170.070312 1033.921875 1209.011719 1055.960938 1173.078125 C 1082.011719 1130.609375 1121.589844 1105.828125 1158.890625 1075.191406 C 1126.21875 1081.191406 1042.789062 1163.328125 1022.960938 1192.539062 C 1018.53125 1199.800781 1014.449219 1207.078125 1009.589844 1213.121094 Z M 306.46875 1251.421875 C 306.390625 1245.699219 306.828125 1245.230469 313.070312 1243.761719 C 328.445312 1241.289062 329.816406 1251.378906 330.851562 1264.019531 C 331.105469 1267.140625 332.25 1278.851562 329.414062 1280.589844 C 325.585938 1282.941406 315.5625 1278.960938 312.386719 1275.390625 C 307.214844 1269.589844 306.660156 1260.210938 306.496094 1252.800781 Z M 361.539062 1240.019531 C 362.910156 1237.800781 373.054688 1239.78125 375.558594 1241.03125 C 390.445312 1249.519531 373.839844 1270.871094 364.257812 1276.679688 C 358.78125 1280 360.097656 1278.511719 360.1875 1273.519531 C 360.371094 1263.601562 360.324219 1252.359375 361.1875 1242.570312 C 361.265625 1241.660156 361.339844 1240.910156 361.539062 1240.019531 Z M 514.6875 1291.078125 C 511.929688 1298.761719 504.933594 1309.898438 497.996094 1314.519531 C 506.5625 1287.691406 510.210938 1278.96875 498.9375 1251.839844 C 498.269531 1250.238281 497.804688 1249.101562 497.542969 1247.371094 C 502.710938 1247.628906 504.398438 1250.199219 507.726562 1254.269531 C 517.347656 1266.039062 519.613281 1276.621094 514.6875 1291.078125 Z M 411.265625 1072.75 C 409.039062 1072.160156 411.121094 1073.148438 412.152344 1073.949219 C 435.636719 1091.921875 445.003906 1097.28125 464.679688 1120.710938 C 481.957031 1141.289062 507.398438 1168.601562 517.574219 1192.808594 C 511.835938 1185.621094 506.074219 1179.328125 500.128906 1171.71875 C 477.671875 1143 441.878906 1104.101562 405.488281 1095.03125 C 421.558594 1105.851562 450.359375 1125.078125 458.621094 1142.46875 C 448.46875 1137.398438 435.417969 1125.910156 425.4375 1119.078125 C 419.023438 1114.730469 413.714844 1111.46875 406.285156 1109 C 408.3125 1112.300781 407.164062 1110.871094 410.90625 1113.820312 C 417.78125 1119.238281 424.636719 1124.699219 431.496094 1130.140625 L 432.476562 1130.921875 C 441.863281 1138.570312 451.109375 1145.691406 456.636719 1155.289062 C 447.203125 1150.75 440.570312 1144.109375 432.8125 1137.890625 C 387.390625 1101.25 365.109375 1079.289062 302.371094 1082.628906 C 276.921875 1083.988281 235.890625 1089.878906 214.15625 1103.429688 C 237.371094 1099.039062 256.890625 1092.289062 280.980469 1089.910156 C 315.824219 1086.449219 350.179688 1089.441406 379.160156 1110.949219 C 399.816406 1126.28125 420.484375 1139.171875 437.640625 1158.738281 C 443.578125 1165.769531 452.828125 1174.949219 457.675781 1181.921875 C 433.835938 1164.851562 420.308594 1144.210938 393.472656 1128.910156 C 360.34375 1110.429688 318.023438 1100.738281 280.1875 1104.679688 C 263.265625 1106.53125 229.46875 1112.800781 214.597656 1120.289062 C 218.636719 1122 247.269531 1115.179688 252.796875 1114.109375 C 283.253906 1108.191406 305.796875 1106.109375 335.148438 1118.101562 C 344.167969 1121.78125 352.457031 1126.449219 359.535156 1133.210938 C 348.019531 1129.980469 342.117188 1126.601562 331.558594 1122.140625 C 305.429688 1111.578125 259.941406 1121.308594 234.304688 1131.238281 C 229.53125 1133.121094 225.183594 1135.128906 220.839844 1137.878906 C 250.410156 1137.21875 276.359375 1118.570312 307.675781 1128.980469 C 315.222656 1131.488281 314.140625 1130.859375 307.625 1131.070312 C 282.191406 1131.929688 241.03125 1134.28125 218.734375 1146.148438 C 231.640625 1147.75 250.453125 1140.621094 264.453125 1139.351562 C 275.246094 1138.53125 286.109375 1138.539062 296.898438 1139.441406 C 272.738281 1144.519531 248.886719 1152.839844 226.195312 1162.53125 C 212.15625 1168.53125 224.421875 1168.050781 231.59375 1165.648438 C 240.125 1162.800781 268.03125 1150.71875 275.476562 1154.328125 C 278.179688 1156.019531 272.597656 1157.390625 271.027344 1158.039062 C 266.371094 1159.960938 238.378906 1170.949219 236.730469 1173.109375 C 237.722656 1173.121094 260.242188 1167.25 263.65625 1166.488281 C 280.894531 1162.640625 297.046875 1160.441406 314.710938 1159.75 C 317.726562 1159.628906 315.351562 1160.089844 314.144531 1160.660156 C 291.292969 1171.371094 240.148438 1171.101562 226.632812 1188.738281 C 225.566406 1190.128906 224.785156 1191.488281 223.933594 1193.019531 C 246.769531 1188.058594 263.558594 1179.480469 287.621094 1176.488281 C 269.003906 1190.949219 246.585938 1190.398438 227.816406 1206.289062 C 239.296875 1210.441406 296.097656 1197.019531 311.316406 1193.859375 C 321.257812 1191.851562 334.382812 1188.960938 344.414062 1188.390625 C 384.035156 1186.550781 427.734375 1199.011719 461.023438 1209.398438 C 413.648438 1207.660156 401.1875 1185.71875 314.140625 1205.410156 C 269.816406 1215.640625 234.503906 1226.238281 188.523438 1215.960938 C 182.054688 1214.449219 176.222656 1212.429688 170.980469 1208.230469 C 185.503906 1208.761719 199.960938 1209.929688 214.460938 1210.851562 C 212.789062 1176.710938 209.9375 1145.128906 202.464844 1111.660156 C 199.199219 1097.289062 195.5625 1083.078125 192.65625 1068.609375 C 163.375 1075.671875 139.558594 1101.289062 129.796875 1127.390625 C 108.703125 1183.769531 125.414062 1281.871094 141.875 1339.109375 C 146.191406 1354.121094 151.710938 1369.839844 157.890625 1383.46875 C 164.925781 1397.921875 172.851562 1407.910156 180.347656 1421.429688 C 186.734375 1404.488281 189.535156 1381.511719 194.347656 1362.589844 C 201.769531 1333.46875 210.121094 1305.101562 213.785156 1275.171875 C 215.277344 1262.988281 216.621094 1251.738281 219.746094 1239.800781 C 238.738281 1240.128906 257.503906 1239.878906 276.476562 1241.398438 C 277.664062 1241.511719 281.113281 1241.738281 282.082031 1242.421875 C 284.785156 1245.640625 292.804688 1270.53125 294.996094 1276.511719 C 296.714844 1280.738281 298.503906 1284.300781 300.859375 1288.21875 L 301.578125 1289.378906 C 324.628906 1324.449219 342.488281 1318.78125 379.273438 1312.371094 C 371.546875 1319.808594 356.007812 1323.289062 342.476562 1323.210938 C 299.480469 1318.609375 297.222656 1285.5 282.597656 1252.671875 C 280.636719 1248.519531 278.199219 1244.128906 272.769531 1245.980469 C 267.574219 1248.5 269.402344 1254.46875 270.628906 1259.078125 L 271.257812 1261.449219 C 273.378906 1270 276.832031 1278.421875 279.742188 1286.75 C 277.324219 1282.859375 257.316406 1248.730469 252.613281 1254 C 250.695312 1256.148438 256.921875 1269.519531 258.09375 1272.941406 C 260.445312 1279.789062 262.621094 1286.46875 265.351562 1293.191406 C 267.15625 1297.089844 268.910156 1300.929688 270.574219 1304.898438 C 259.460938 1290.621094 252.769531 1277.769531 243.6875 1262.5 C 239.257812 1255.050781 238.46875 1261.449219 238.160156 1266.378906 C 237.0625 1283.878906 251.652344 1314.980469 258.015625 1332.109375 C 259.027344 1335.140625 250.988281 1325.128906 250.734375 1324.761719 C 247.964844 1320.441406 232.90625 1290.398438 230.507812 1290.460938 C 228.566406 1293.578125 232.621094 1310.589844 234.082031 1314.75 C 237.824219 1325.421875 244.199219 1335.078125 248.726562 1345.550781 C 251.945312 1353.160156 249.273438 1348.828125 246.175781 1345.550781 C 238.1875 1337.078125 236.394531 1333.570312 230.40625 1324.039062 C 228.507812 1321.050781 226.546875 1318.140625 224.542969 1315.21875 C 227.574219 1351.53125 240.601562 1387.121094 249.550781 1422.320312 C 250.644531 1426.648438 247.996094 1421.140625 247.160156 1419.769531 C 239.902344 1407.871094 232.195312 1396.550781 225.285156 1384.46875 C 222.914062 1380.328125 220.347656 1376.191406 217.714844 1372.199219 C 223.765625 1400.261719 240.515625 1424.960938 248.777344 1452.851562 C 239.164062 1439.808594 229.003906 1426.609375 219.730469 1413.398438 C 216.355469 1408.601562 214.144531 1403.480469 210.601562 1398.808594 C 214.433594 1423.011719 220.738281 1450.789062 245.058594 1462.011719 C 288.601562 1480.179688 386.351562 1483.539062 434.359375 1479.359375 C 530.160156 1469.199219 574.128906 1423.671875 608.285156 1336.480469 C 632.71875 1266.050781 641.269531 1170.308594 589.222656 1109.949219 C 584.902344 1104.941406 562.289062 1081.398438 557.382812 1080.328125 C 557.667969 1080.859375 567.949219 1093.410156 569.070312 1095 C 577.773438 1107.359375 594.921875 1134.460938 600.421875 1149.511719 C 589.023438 1136.078125 581.886719 1123.289062 569.570312 1109.761719 C 568.851562 1108.980469 532.308594 1070.789062 544.957031 1091.429688 C 552.722656 1104.089844 559.101562 1114.699219 563.945312 1128.859375 C 552.789062 1112.859375 540.632812 1091.308594 525.058594 1079.679688 C 531.621094 1093.921875 538.96875 1103.851562 545.503906 1119.570312 C 553.347656 1138.441406 569.714844 1177.808594 543.304688 1132.96875 C 535.988281 1120.550781 523.703125 1100.699219 511.5625 1093.128906 C 521.738281 1110.960938 529.894531 1115.429688 538.175781 1137.050781 C 546.140625 1157.851562 557.9375 1172.46875 564.933594 1192.808594 C 559.695312 1183.628906 552.539062 1173.960938 546.738281 1164.238281 C 520.339844 1119.980469 505.152344 1106.871094 463.367188 1077.308594 C 458.363281 1073.769531 395.453125 1032.738281 433.050781 1062.820312 C 461.515625 1085.589844 481.371094 1089.558594 508.898438 1120.25 C 514.066406 1126.011719 533.960938 1149.941406 512.960938 1130.390625 C 497.316406 1115.828125 493.332031 1108.261719 474.101562 1094.78125 C 473.566406 1094.398438 430.207031 1066.371094 447.863281 1079.949219 C 462.589844 1091.28125 485.09375 1118.679688 499.695312 1133.429688 C 522.011719 1155.980469 545.566406 1183.5 557.917969 1213.050781 C 538.132812 1189.980469 535.207031 1171.25 509.621094 1147.429688 C 493.820312 1132.730469 479.992188 1118.421875 461.914062 1106.390625 C 445.34375 1095.359375 429.269531 1079.460938 411.265625 1072.75 Z M 652.59375 1375.320312 C 648.585938 1383.890625 644.300781 1391.910156 641.140625 1400.851562 C 647.738281 1396.28125 674.496094 1352.128906 679.820312 1342.148438 C 692.453125 1318.328125 704.085938 1293.851562 716.695312 1270.199219 C 735.050781 1235.769531 765.890625 1214.210938 792.507812 1186.910156 C 798.0625 1181.128906 813.679688 1163.300781 801.691406 1183.949219 C 801.597656 1184.109375 769.34375 1233.269531 783.214844 1214.558594 C 788.902344 1206.878906 830.777344 1144.429688 835.203125 1142.96875 C 841.71875 1142.660156 761.09375 1255.070312 752.003906 1269.230469 C 761.992188 1258.441406 789.324219 1220.039062 800.050781 1216.058594 L 802.070312 1215.648438 L 803.695312 1216.058594 C 806.40625 1218.328125 819.867188 1243.671875 824.164062 1250.121094 C 834.109375 1265.050781 845.402344 1279.320312 856.609375 1293.320312 L 858.640625 1295.859375 C 865.40625 1304.261719 872.578125 1312.980469 879.992188 1320.820312 C 884.625 1325.679688 882.808594 1323.621094 880.050781 1319.398438 C 870.773438 1305.28125 809.765625 1215.539062 809.246094 1208.671875 C 808.667969 1201 820.101562 1194.351562 821.84375 1208.441406 C 814.714844 1205.648438 815.019531 1206.378906 819.332031 1215.691406 C 828.886719 1236.339844 849.359375 1263.898438 863.089844 1282.789062 L 910.867188 1360.660156 C 906.695312 1348.589844 897.753906 1332.429688 891.363281 1317.019531 C 873.101562 1269.75 867.789062 1203.351562 875.710938 1153.398438 C 877.5625 1141.710938 873.523438 1140.980469 862.960938 1135.039062 C 836.71875 1120.28125 806.117188 1117.339844 776.5625 1118.230469 L 775.390625 1118.28125 C 748.058594 1120.421875 715.074219 1128.289062 694.800781 1147.929688 C 691.621094 1151.011719 691.980469 1160.191406 693.777344 1162.789062 C 701.890625 1155.601562 709.636719 1145.109375 720.515625 1142.390625 C 720.351562 1145.871094 707.769531 1156 703.878906 1160.488281 C 690.363281 1176.109375 692.9375 1168.488281 693.925781 1188.671875 C 697.132812 1254.289062 679.53125 1316.109375 652.59375 1375.320312 Z M 607.472656 862.671875 C 575.203125 857.589844 541.921875 858.03125 509.175781 859.410156 C 492 860.128906 421.058594 860.28125 410.828125 863.089844 C 454.96875 874.898438 538.898438 861.851562 601.527344 866.691406 C 646.328125 871.019531 685.859375 886.210938 711.644531 924.96875 C 736.28125 961.988281 732.464844 925.851562 743.988281 951.921875 C 754.640625 976.019531 762.078125 998.140625 778.457031 1019.421875 C 782.671875 1012.960938 784.402344 990.550781 785.757812 981.660156 C 787.84375 967.960938 790.199219 952.449219 796.953125 940.238281 C 795.363281 958.441406 789.414062 993.050781 796.183594 1009.238281 L 797.144531 1011.53125 C 799.148438 1015.589844 798.480469 1013.851562 800.261719 1008.761719 C 811.90625 974.109375 808.808594 951.671875 836.402344 923.238281 C 860.382812 899.628906 878.269531 896.238281 906.820312 882.339844 C 915.015625 878.351562 905.578125 880.21875 901.300781 880.589844 C 867.628906 883.488281 860.773438 895.949219 833.835938 907.519531 C 825.148438 911.25 851.484375 885.75 852.007812 885.300781 C 875.046875 865.339844 906.855469 851.011719 936.710938 845.25 C 985.859375 836.421875 1044.390625 842.421875 1093.269531 851.660156 C 1120.660156 856.988281 1169.28125 866.191406 1194.238281 856.851562 C 1132.230469 854.570312 1147.859375 856.460938 1086.449219 843.101562 C 1011.390625 827.5 908.414062 819.261719 850.152344 880.109375 C 842.46875 888.128906 821.199219 907.140625 814.664062 910.039062 C 823.304688 865.230469 852.511719 845.410156 887.585938 818.820312 C 847 827.261719 807.039062 863.269531 792.222656 901.648438 C 787.113281 914.878906 783.398438 928.410156 778.136719 941.660156 C 770.128906 894.859375 816.269531 823.078125 829.796875 775.589844 C 833.726562 760.339844 828.195312 770.671875 824.4375 776.960938 C 805.109375 809.980469 785.1875 850 773.988281 886.539062 C 772.996094 889.859375 772.121094 891.191406 770.050781 893.941406 C 770.617188 867.148438 774.628906 827.289062 765.640625 802.5 C 759.585938 833.25 754.917969 863.921875 747.335938 894.398438 C 740.042969 861.550781 737.023438 829.371094 730.839844 796.859375 C 725.261719 767.53125 711.152344 748.921875 686.488281 732.488281 C 682.339844 729.71875 677.128906 724.941406 684.777344 733.03125 C 698.585938 747.648438 707.710938 749.089844 717.773438 770.890625 C 725.59375 787.820312 731.558594 831.851562 734.816406 852.328125 C 736.386719 862.191406 737.789062 871.988281 739.019531 881.898438 C 722.109375 855.238281 731.828125 843.699219 700.582031 816.859375 C 692.4375 809.859375 685.859375 805.941406 675.230469 804.019531 C 702.664062 825.03125 725.046875 858.230469 732.796875 892.011719 C 703.019531 851.601562 667.125 831.589844 616.792969 828.960938 C 608.09375 828.511719 616.023438 830.550781 619.847656 832.539062 C 655.945312 851.339844 667.691406 839.179688 700.652344 877.648438 C 710.890625 889.589844 728.058594 909.328125 728.828125 925.429688 C 722.320312 926.511719 708.917969 904.160156 703.609375 898.789062 C 685.792969 880.730469 656.414062 873.011719 632.355469 867.46875 C 624.0625 865.578125 615.863281 864.050781 607.472656 862.671875 Z M 912.359375 2708.335938 C 910.683594 2682.578125 913.457031 2654.117188 912.519531 2627.105469 C 891.621094 2674.945312 905.382812 2787.90625 918.980469 2839.484375 C 925.972656 2865.757812 934.007812 2896.777344 951.332031 2918.15625 C 946.128906 2882.6875 934.011719 2848.242188 926.484375 2812.980469 C 919.261719 2777.503906 914.972656 2744.433594 912.359375 2708.335938 Z M 1219.730469 2389.6875 C 1168.019531 2284.570312 1171.300781 2243.421875 1183.339844 2130.480469 C 1186.578125 2100.121094 1167.539062 2160.691406 1167.378906 2161.359375 C 1156.570312 2205.089844 1162.011719 2253.339844 1172 2296.71875 C 1178.351562 2319.722656 1199.378906 2380.644531 1219.75 2393.203125 L 1221.589844 2393.859375 Z M 700.15625 2758.980469 C 676.257812 2804.203125 680.070312 2947.769531 702.003906 2994.839844 C 713.816406 3020.191406 708.945312 2989.800781 708.078125 2981.117188 C 703.128906 2931.472656 695.074219 2899.628906 696.203125 2847.496094 C 696.542969 2831.871094 703.042969 2765.117188 701.546875 2757.789062 Z M 1096.648438 2989.519531 C 1126.300781 3023.289062 1082.050781 2955.5625 1078.210938 2948.261719 C 1032.75 2860.371094 1029.878906 2799.917969 1026.671875 2703.582031 C 1012.449219 2786.261719 1025.960938 2886.105469 1072.21875 2957.277344 C 1079.859375 2969.035156 1087.550781 2978.894531 1096.648438 2989.519531 Z M 464.226562 2529.738281 C 461.546875 2539.414062 456.789062 2552.507812 467.5625 2535.570312 C 503.378906 2475.667969 506.695312 2387.152344 482.597656 2322.085938 C 470.144531 2288.46875 474.699219 2313.09375 478.285156 2333.058594 C 492.800781 2413.898438 485.570312 2452.5 464.226562 2529.738281 Z M 1292.898438 2812.644531 C 1258.5 2729.8125 1249.851562 2706.757812 1244.800781 2614.734375 C 1244.289062 2605.476562 1245.78125 2575.664062 1239.359375 2600.613281 C 1228.851562 2641.4375 1240.03125 2710.117188 1254.679688 2749.90625 C 1261.171875 2767.5625 1279.378906 2806.277344 1294.25 2816.9375 Z M 1179.699219 2707.667969 C 1203.96875 2743.355469 1174.410156 2679.917969 1172.128906 2674.035156 C 1144.011719 2600.203125 1142.46875 2562.570312 1146.609375 2484.988281 C 1148.910156 2441.878906 1135.679688 2515.636719 1135.070312 2523.121094 C 1129.730469 2588 1146.039062 2652.171875 1179.699219 2707.667969 Z M 1048.289062 869.589844 C 988.472656 874.851562 925.097656 903.28125 877.679688 939.609375 C 870.195312 945.339844 866.25 949.289062 861.855469 957.699219 C 891.53125 948.28125 924.417969 923.761719 953.664062 909.578125 C 986.472656 894.078125 1018.980469 883.179688 1051.398438 869.539062 C 1052.679688 869 1049.890625 869.5 1048.289062 869.589844 Z M 1081.140625 2621.519531 C 1071.101562 2586.761719 1054.101562 2559.761719 1044.210938 2521.179688 C 1033.378906 2478.910156 1029.519531 2436.902344 1023.460938 2393.933594 C 1018.308594 2392.453125 1024.03125 2477.144531 1025.058594 2485.058594 C 1030.828125 2529.054688 1049.289062 2588.113281 1078.859375 2621.851562 L 1081.289062 2624.175781 Z M 296.402344 2284.640625 C 295.089844 2291.871094 285.9375 2327.273438 299.695312 2301.566406 C 317.894531 2264.710938 327.710938 2169.960938 310.148438 2133.988281 C 301.640625 2116.570312 305.152344 2176.628906 305.214844 2179.46875 C 306.117188 2220.738281 303.683594 2243.980469 296.402344 2284.640625 Z M 427.386719 2346.1875 C 425.96875 2322.765625 419.453125 2283.390625 406.414062 2263.808594 C 406.097656 2265.089844 415.621094 2325.261719 416.191406 2332.992188 C 418.910156 2370.070312 411.808594 2407.734375 408.765625 2444.855469 C 407.570312 2459.4375 417.707031 2427.386719 417.96875 2426.320312 C 423.476562 2403.824219 428.203125 2369.535156 427.386719 2346.1875 Z M 640.875 945.960938 C 632.132812 931.371094 592.097656 916.980469 568.78125 910.28125 C 542.511719 902.71875 501.238281 896.421875 472.097656 898.328125 C 474.453125 900.058594 470.351562 898.199219 475.765625 900.519531 L 492.671875 904.429688 C 532.992188 912.160156 560.976562 917.410156 600.808594 931.429688 C 611.699219 935.269531 630.964844 944.070312 640.875 945.960938 Z M 639.636719 2694.839844 C 639.601562 2703.875 639.515625 2712.890625 639.523438 2721.929688 C 658.816406 2683.351562 647.9375 2597.691406 624.355469 2560.804688 C 624.027344 2563.277344 636.242188 2634.269531 637.554688 2647.488281 C 639.148438 2663.53125 639.589844 2678.730469 639.636719 2694.839844 Z M 991.820312 3020.476562 C 991.554688 3031.050781 987.855469 3089.40625 995.601562 3043.816406 C 1002.648438 2999.097656 1002.679688 2926.664062 983.28125 2885.328125 C 981.683594 2913.332031 990.566406 2964.125 991.6875 2996.433594 C 991.96875 3004.558594 991.949219 3012.355469 991.820312 3020.476562 Z M 1166.621094 2818.117188 C 1166.871094 2864.664062 1175.570312 2907.785156 1207.109375 2943.621094 C 1201.058594 2920.019531 1186.550781 2900.792969 1179.589844 2871.335938 C 1170.238281 2831.710938 1175.308594 2807.097656 1175.421875 2768.5625 C 1175.480469 2744.699219 1166.75 2811.199219 1166.710938 2813.128906 Z M 977.0625 1002.378906 L 1049.929688 963.039062 C 1062.308594 957.039062 1075.71875 950.71875 1089.429688 945.828125 C 1095.988281 943.488281 1103.289062 941.300781 1110.199219 939.078125 C 1114.691406 937.640625 1117.421875 937.078125 1121.679688 936.03125 L 1132.921875 930.820312 C 1082.460938 931.691406 993.597656 976.519531 977.0625 1002.378906 Z M 584.085938 2500.609375 C 583.519531 2508.027344 577.996094 2549.652344 587.519531 2517.4375 C 596.921875 2481.324219 597.246094 2396.597656 578.25 2364.347656 C 578.730469 2387.445312 584.160156 2416.40625 585.289062 2441.714844 C 586.1875 2461.828125 585.484375 2480.546875 584.085938 2500.609375 Z M 481 943.171875 C 531.183594 948.679688 544.09375 949.511719 583.648438 985.261719 C 591.539062 992.390625 600.28125 1005.898438 607.632812 1010.191406 C 598.675781 989.628906 578.984375 965.859375 561.96875 955.609375 C 518.414062 929.378906 487.03125 943.648438 481 943.171875 Z M 865.210938 653.039062 C 922.058594 635.410156 922.976562 635.171875 982.238281 643.800781 C 997.074219 645.96875 1009.441406 647.359375 1024.519531 646.789062 C 981.578125 634.378906 912.007812 621.019531 871.210938 644.511719 C 867.054688 646.898438 863.679688 649.011719 862.0625 653.621094 Z M 1110.21875 794.199219 C 1124.898438 796.570312 1140.910156 801.648438 1153.960938 802.878906 C 1118.480469 782.988281 1040.191406 776.921875 1000.878906 787.121094 C 989.847656 789.980469 978.382812 792.738281 967.53125 796.128906 C 1010.011719 793.351562 1034.441406 784.558594 1079.609375 789.921875 L 1087.511719 790.851562 C 1095.109375 791.839844 1102.648438 793 1110.21875 794.199219 Z M 709.464844 665.371094 C 730.636719 686.640625 742.308594 712.488281 751.085938 740.578125 C 752.15625 744 753.070312 745.378906 754.878906 748.578125 C 753.15625 701.410156 724.308594 651.558594 676.421875 639.128906 C 686.46875 649.820312 698.742188 655.460938 709.464844 665.371094 Z M 1307 2156.699219 C 1304.019531 2145.078125 1286.820312 2055.441406 1286.480469 2054.96875 C 1281.628906 2048.371094 1284.308594 2100.808594 1284.820312 2105.699219 C 1289.539062 2132.371094 1298.390625 2152.949219 1311.640625 2176.351562 C 1317.820312 2186.070312 1307.339844 2157.890625 1307 2156.699219 Z M 323.757812 2584.84375 C 323.1875 2596.421875 341.492188 2540.738281 342.558594 2537.78125 C 343.503906 2535.304688 385.90625 2437.222656 362.148438 2474.785156 C 345.777344 2500.671875 326.390625 2554.242188 323.757812 2584.84375 Z M 544.660156 769.511719 C 562.230469 772.859375 578.109375 764.019531 622.203125 773.289062 C 644.882812 778.300781 652.347656 781.621094 672.652344 790.160156 C 677.195312 792.070312 681.011719 793.339844 685.738281 794.710938 C 683.371094 787.230469 681.933594 788.308594 673.390625 783.960938 C 633.523438 763.699219 587.964844 756.300781 544.660156 769.511719 Z M 927.746094 996.921875 L 954.382812 960.929688 C 967.601562 945.878906 981.691406 936.148438 1000.710938 929.558594 C 1009.128906 926.640625 1042.5 915.96875 1010.691406 921.078125 C 972.828125 927.160156 936.992188 959.640625 927.746094 996.921875 Z M 805.167969 763.851562 C 807.253906 762.550781 810.257812 764.46875 812.039062 750.210938 C 818.746094 696.53125 774.984375 660.558594 774.003906 657.941406 C 775.394531 662.21875 775.847656 661.210938 779.664062 666.449219 C 798.320312 692.058594 806.941406 732.839844 805.167969 763.851562 "/>
</svg>
